<?xml version='1.0' encoding='UTF-8' standalone='no'?>
<svg xmlns:cc="http://creativecommons.org/ns#" width="296.926mm" version="1.2" height="209.973mm" viewBox="0 0 3507 2480" xmlns="http://www.w3.org/2000/svg" xmlns:xlink="http://www.w3.org/1999/xlink" baseProfile="tiny">
 <defs/>
 <g fill="none" stroke="black" stroke-linejoin="bevel" stroke-width="1" stroke-linecap="square" fill-rule="evenodd">
  <g font-family="Ubuntu" fill="none" stroke="#000000" stroke-opacity="1" stroke-linejoin="bevel" font-weight="400" stroke-width="1" stroke-linecap="square" font-size="45.8333" font-style="normal" transform="matrix(1,0,0,1,0,0)"/>
  <g font-family="Ubuntu" fill="none" stroke="#000000" stroke-opacity="1" stroke-linejoin="bevel" font-weight="400" stroke-width="1" stroke-linecap="square" font-size="45.8333" font-style="normal" transform="matrix(1,0,0,1,0,0)"/>
  <g font-family="Ubuntu" fill="none" stroke="#000000" stroke-opacity="1" stroke-linejoin="bevel" font-weight="400" stroke-width="1" stroke-linecap="square" font-size="45.8333" font-style="normal" transform="matrix(11.8081,0,0,11.8081,0,0)"/>
  <g font-family="Ubuntu" fill="none" stroke="#000000" stroke-opacity="1" stroke-linejoin="bevel" font-weight="400" stroke-width="1" stroke-linecap="square" font-size="45.8333" font-style="normal" transform="matrix(0.999751,0,0,0.999751,0,0)"/>
  <g font-family="Ubuntu" fill="#ffffff" stroke="none" font-weight="400" fill-opacity="1" font-size="45.8333" font-style="normal" transform="matrix(0.999751,0,0,0.999751,0,0)">
   <path d="M-2,-2 L3510,-2 L3510,2483 L-2,2483 L-2,-2" vector-effect="none" fill-rule="evenodd"/>
  </g>
  <g font-family="Ubuntu" fill="none" stroke="#000000" stroke-opacity="1" stroke-linejoin="bevel" font-weight="400" stroke-width="1" stroke-linecap="square" font-size="45.8333" font-style="normal" transform="matrix(0.999751,0,0,0.999751,0,0)"/>
  <g font-family="Ubuntu" fill="none" stroke="#000000" stroke-opacity="1" stroke-linejoin="bevel" font-weight="400" stroke-width="1" stroke-linecap="square" font-size="45.8333" font-style="normal" transform="matrix(11.8081,0,0,11.8081,0,0)"/>
  <g font-family="Ubuntu" fill="none" stroke="#000000" stroke-opacity="1" stroke-linejoin="bevel" font-weight="400" stroke-width="1" stroke-linecap="square" font-size="45.8333" font-style="normal" transform="matrix(11.8081,0,0,11.8081,0,0)"/>
  <g font-family="Ubuntu" fill="none" stroke="#000000" stroke-opacity="1" stroke-linejoin="bevel" font-weight="400" stroke-width="1" stroke-linecap="square" font-size="45.8333" font-style="normal" transform="matrix(11.8081,0,0,11.8081,0,0)"/>
  <g font-family="Ubuntu" fill="none" stroke="#000000" stroke-opacity="1" stroke-linejoin="bevel" font-weight="400" stroke-width="1" stroke-linecap="square" font-size="45.8333" font-style="normal" transform="matrix(11.8081,0,0,11.8081,0,0)"/>
  <g font-family="Ubuntu" fill="none" stroke="#000000" stroke-opacity="1" stroke-linejoin="bevel" font-weight="400" stroke-width="1" stroke-linecap="square" font-size="45.8333" font-style="normal" transform="matrix(11.8081,0,0,11.8081,77.154,64.295)"/>
  <g font-family="Ubuntu" fill="#ffffff" stroke="none" font-weight="400" fill-opacity="1" font-size="45.8333" font-style="normal" transform="matrix(11.8081,0,0,11.8081,77.154,64.295)">
   <path d="M0,0 L284.229,0 L284.229,198.198 L0,198.198 L0,0" vector-effect="none" fill-rule="evenodd"/>
  </g>
  <g font-family="Ubuntu" fill="none" stroke="#000000" stroke-opacity="1" stroke-linejoin="bevel" font-weight="400" stroke-width="1" stroke-linecap="square" font-size="45.8333" font-style="normal" transform="matrix(11.8081,0,0,11.8081,77.154,64.295)"/>
  <g font-family="Ubuntu" fill="none" stroke="#000000" stroke-opacity="1" stroke-linejoin="bevel" font-weight="400" stroke-width="1" stroke-linecap="square" font-size="45.8333" font-style="normal" transform="matrix(11.8081,0,0,11.8081,77.154,64.295)"/>
  <g font-family="Ubuntu" fill="#000000" stroke="none" font-weight="400" fill-opacity="0" font-size="45.8333" font-style="normal" transform="matrix(0.999751,0,0,0.999751,77.154,64.295)">
   <rect width="3357" y="0" height="2341" x="0"/>
  </g>
  <g font-family="Ubuntu" fill="none" stroke="#000000" stroke-opacity="1" stroke-linejoin="bevel" font-weight="400" stroke-width="1" stroke-linecap="square" font-size="45.8333" font-style="normal" transform="matrix(0.999751,0,0,0.999751,77.154,64.295)"/>
  <g font-family="Ubuntu" fill="#4d1fe3" stroke="#232323" stroke-opacity="1" stroke-linejoin="bevel" font-weight="400" stroke-width="3.07087" fill-opacity="1" stroke-linecap="square" font-size="45.8333" font-style="normal" transform="matrix(0.999751,0,0,0.999751,77.154,64.295)">
   <path d="M1575.9,-1109.75 L1672.27,766.735 L1679.19,759.99 L1798.66,754.091 L1799.28,755.705 L1798.56,775.796 L1800.34,780.413 L1799.91,792.439 L1642.86,799.814 L1635.68,807.705 L1627.64,817.115 L1620.03,824.617 L1604.21,842.952 L1596.68,850.506 L1580.81,868.789 L1573.32,876.382 L1557.41,894.625 L1553.6,898.528 L1448.92,-1159.13 L1575.9,-1109.75" vector-effect="none" fill-rule="evenodd"/>
   <path d="M2116.91,-899.371 L2159.17,746.116 L2145.17,761.888 L2141.12,765.537 L2121.11,787.909 L2117.14,791.609 L2097.08,813.927 L2093.16,817.664 L2079.42,832.892 L2027.46,-934.153 L2116.91,-899.371" vector-effect="none" fill-rule="evenodd"/>
   <path d="M2154.84,3596.14 L2066.55,1542.63 L2071.11,1537.81 L2089.17,1554.56 L2094.52,1558.96 L2110.47,1573.79 L2114.93,1578.09 L2127.29,1588.49 L2140.61,1601.46 L2153.01,1611.76 L2166.27,1624.82 L2178.81,1635.06 L2191.9,1648.19 L2276.68,3643.51 L2154.84,3596.14" vector-effect="none" fill-rule="evenodd"/>
   <path d="M1809.2,1027.79 L1811.17,1019.04 L1808.73,1005.81 L2019.86,997.316 L2013.38,1004 L2006.39,1011.18 L2000.88,1017.76 L1982.14,1036.91 L1976.68,1043.56 L1964.66,1055.75 L1810.86,1061.9 L1810.61,1061.17 L1812.01,1044.39 L1812.15,1043.75 L1809.2,1027.79" vector-effect="none" fill-rule="evenodd"/>
  </g>
  <g font-family="Ubuntu" fill="#cf7521" stroke="#232323" stroke-opacity="1" stroke-linejoin="bevel" font-weight="400" stroke-width="3.07087" fill-opacity="1" stroke-linecap="square" font-size="45.8333" font-style="normal" transform="matrix(0.999751,0,0,0.999751,77.154,64.295)">
   <path d="M416.755,1273.94 L421.681,1273.15 L414.266,1047.43 L405.853,1056.03 L398.308,1064.83 L381.997,1081.4 L374.505,1090.26 L369.475,1095.33 L359.385,1105.67 L365.073,1275.51 L349.416,1275.46 L347.038,1276.45 L324.792,1276.37 L322.414,1277.37 L309.023,1277.32 L300.157,1276.97 L295.667,1278.68 L275.532,1277.88 L271.042,1279.6 L248.303,1278.69 L241.732,1281.08 L218.06,1280.46 L194.603,1281.57 L138.014,1278.86 L-58.6592,1292.81 L-976.233,1319.27 L-814.146,902.646 L367.402,870.881 L353.32,858.603 L351.958,857.183 L335.898,841.194 L327.702,834.545 L310.324,817.01 L301.958,810.49 L284.746,792.744 L276.065,786.44 L259.161,768.278 L249.702,762.402 L238.788,749.331 L238.379,747.654 L-455.715,-18.6548 L179.969,-1652.59 L589.875,-1493.18 L679.77,865.382 L665.774,880.023 L658.819,888.408 L642.104,905.997 L635.106,914.335 L628.969,920.823 L616.571,934.111 L870.899,921.599 L870.669,913.585 L1065.8,903.892 L1065.83,904.485 L1066.32,918.755 L1066.44,919.821 L1067.25,943.47 L1067.36,944.536 L1067.83,958.361 L1067.92,960.215 L1068.3,973.191 L1068.56,975.727 L1069.21,997.906 L1069.47,1000.44 L1069.85,1013.56 L1069.95,1015.69 L1070.37,1029.14 L1070.57,1031.08 L1071.07,1047.07 L1080.53,1055.49 L1092.04,1067.5 L1095.21,1070.28 L1111.32,1085.04 L1115.69,1089.91 L1117.79,1243.71 L1127.88,1245.59 L1141.09,1243.02 L1152.52,1245.15 L1165.73,1242.58 L1177.15,1244.72 L1190.37,1242.15 L1201.81,1244.28 L1217.94,1241.14 L1240.16,1245.02 L1272.08,1240.78 L1278.19,1246.89 L1306.04,1246.19 L1306.43,1246.07 L1347.86,1244.3 L1348.79,1243.86 L1363.67,1243.23 L1358.48,1163.49 L1371.97,1150.44 L1377.45,1142.55 L1395,1124.93 L1400.69,1117.32 L1418.05,1099.55 L1419.64,1097.51 L1437.04,1077.85 L1441.08,1074.07 L1450.98,1062.95 L1460.33,1052.77 L1465.93,1045.99 L1479.39,1032.04 L1489.06,1020.48 L1502.46,1006.48 L1512.18,994.972 L1522.24,984.398 L1529.84,975.733 L1541.12,963.569 L1542.15,964.501 L1544.03,966.033 L1568.34,988.032 L1570.23,989.555 L1594.52,1011.57 L1596.43,1013.08 L1620.71,1035.1 L1622.64,1036.6 L1640.14,1052.5 L1646.93,1059.06 L1658.57,1068.4 L1669.76,1079.39 L1684.79,1091.91 L1692.62,1100.3 L1711.18,1115.42 L1718.82,1124.13 L1737.78,1138.91 L1745.06,1148.41 L1759.62,1158.56 L1761.16,1161.31 L1819.61,1198.57 L1820.34,1202.1 L1819.88,1210.92 L1846.51,1214.5 L1872.74,1209.49 L1885.03,1212.2 L1899.06,1209.41 L1908.37,1211.46 L1923.7,1209.09 L1931.69,1211.19 L1939.37,1210.01 L1954.92,1209.32 L1956.31,1209.84 L1976.77,1208.93 L1979.54,1208.04 L1997.25,1209.76 L2004.17,1207.53 L2016.75,1208.75 L2021.88,1209.29 L2029.3,1206.96 L2040.14,1208.11 L2053.94,1206.79 L2058.45,1208.23 L2078.57,1206.3 L2083.08,1207.74 L2097.53,1206.35 L2100.44,1206.73 L2103.76,1421.37 L2086.66,1439.22 L2080.34,1446.67 L2068.74,1458.83 L2065.62,1455.81 L2062.22,1452.12 L2043.87,1434.38 L2040.37,1431.19 L2025.29,1415.59 L2015.27,1406.57 L2000.24,1390.9 L1990.14,1381.95 L1979.36,1370.59 L1974.17,1365.76 L1958.55,1350.3 L1957.54,1349.5 L1933.52,1325.67 L1932.47,1324.9 L1909.75,1302.29 L1906.87,1300.29 L1886.04,1278.32 L1881.57,1275.92 L1872.44,1265.63 L1813.23,1244.44 L1812.29,1218.11 L1789.7,1216.38 L1755.62,1272.41 L1750.6,1275.49 L1740.14,1290.47 L1728.83,1299.44 L1716.4,1315.32 L1705.73,1324.67 L1692.99,1340.16 L1690.27,1342.67 L1682.54,1221.38 L1678.75,1221.02 L1666.04,1223.77 L1657.29,1222.02 L1641.46,1225.44 L1632.7,1223.69 L1616.87,1227.11 L1608.11,1225.36 L1593.09,1228.61 L1605.94,1433.18 L1583.62,1457.62 L1583.58,1457.66 L1564.3,1478.78 L1560.46,1482.68 L1550.9,1493.53 L1547.43,1490.33 L1544.86,1488.01 L1532.94,1476.93 L1529.22,1473.85 L1506.72,1452.91 L1502.98,1449.86 L1486.16,1434.17 L1480.49,1428.63 L1468.33,1418.45 L1454.27,1404.57 L1442.01,1394.47 L1428.04,1380.46 L1423.34,1376.68 L1403.55,1358.9 L1403.22,1358.5 L1378.34,1335.52 L1377.37,1334.92 L1352.13,1311.48 L1351.07,1311 L1338.88,1299.51 L1278.49,1283.57 L1277.3,1272.88 L1216.96,1300.22 L1209.85,1309.58 L1202.74,1314 L1185.16,1334.7 L1178.49,1339.84 L1161.81,1358.71 L1154.2,1365.31 L1139,1382.69 L1129.92,1390.91 L1114.58,1408.14 L1105.64,1416.46 L1094.23,1429.13 L1082.53,1440.81 L1081.32,1439.56 L1068,1427.84 L1063.45,1423.1 L1061.05,1245.73 L1045.23,1245.59 L1043.49,1246.23 L1020.59,1246.02 L1018.86,1246.67 L995.956,1246.45 L994.222,1247.1 L971.32,1246.89 L969.586,1247.54 L946.359,1247.32 L943.861,1248.25 L896.396,1247.87 L891.134,1249.12 L886.684,1234.49 L827.925,1202.34 L822.021,1193.77 L807.915,1184.03 L797.649,1171.78 L782.397,1160.03 L771.853,1148.45 L756.958,1136.4 L746.222,1125.11 L731.523,1112.89 L720.666,1101.77 L706.089,1089.44 L698.728,1082.03 L690.254,1074.32 L696.525,1263.23 L681.212,1262.88 L677.659,1264.3 L656.588,1263.81 L653.035,1265.23 L642.449,1264.99 L628.39,1265.54 L628.226,1265.48 L614.936,1266.01 L603.589,1266.02 L601.486,1266.91 L589.789,1266.91 L576.853,1267.58 L576.02,1267.28 L552.229,1268.5 L551.395,1268.2 L536.08,1268.99 L526.131,975.493 L522.577,975.614 L510.962,976.175 L506.52,976.181 L486.34,977.156 L481.897,977.161 L480.215,977.243 L469.978,987.878 L479.411,1270.94 L489.822,1271.66 L496.081,1269.46 L514.446,1270.74 L520.705,1268.54 L533.323,1269.42 L542.952,1556.83 L557.417,1556.45 L561.708,1556.13 L582.044,1555.59 L586.335,1555.28 L596.526,1555.01 L637.592,3006.19 L-84.4031,2725.44 L262.243,1799.59 L270.149,1792.73 L273.242,1786.79 L293.347,1767.6 L297.573,1761.3 L317.265,1741.78 L321.693,1735.82 L341.189,1716.14 L345.733,1710.34 L365.115,1690.57 L369.734,1684.87 L388.512,1665.57 L393.671,1659.39 L411.884,1640.71 L417.65,1633.92 L435.817,1615.19 L441.618,1608.44 L457.885,1591.61 L-1100.69,1639.16 L-1058.29,1530.18 L410.978,1485.67 L424.259,1498.19 L416.755,1273.94" vector-effect="none" fill-rule="evenodd"/>
   <path d="M1448.92,-1159.13 L1553.6,898.528 L1539.33,914.304 L1533.3,908.5 L1522.21,898.899 L1507.41,884.571 L1496.27,875.011 L1481.52,860.63 L1481.26,860.411 L1464.71,845.926 L1455.63,836.67 L1438.75,822.029 L1429.73,812.674 L1418.02,802.643 L1403.84,788.813 L1396.63,783.282 L1382.24,769.018 L1370.38,759.394 L1360.57,748.189 L1343.97,735.51 L1334.65,723.407 L1323.63,716.275 L1263.56,708.72 L1263.2,692.745 L1202.51,707.311 L1194.91,714.368 L1192.65,719.131 L1171.59,740.358 L1170.67,741.803 L1147.17,765.704 L1146.2,767.047 L1122.75,790.997 L1121.74,792.291 L1099.64,814.926 L1098.32,816.084 L1076.37,839.416 L1073.9,841.652 L1063.91,852.25 L1060.58,849.133 L867.805,858.608 L866.655,853.423 L868.736,843.107 L866.161,831.501 L704.06,838.896 L717.334,823.513 L725.421,815.878 L741.015,797.545 L749.288,790.033 L764.693,771.492 L773.308,764.181 L780.698,754.877 L795.648,738.839 L796.705,736.601 L808.346,724.473 L846.311,588.516 L857.36,650.26 L856.943,697.803 L862.213,713.092 L862.177,735.062 L863.419,737.933 L863.375,760.073 L864.484,762.641 L864.441,784.78 L865.549,787.348 L865.52,802.929 L1004.67,796.094 L1020.23,810.904 L1020.73,811.294 L1045.07,834.444 L1045.56,834.84 L1059.79,848.363 L1042.05,-1317.34 L1448.92,-1159.13" vector-effect="none" fill-rule="evenodd"/>
   <path d="M660.835,1499.5 L662.931,1497.47 L684.635,1473.8 L686.749,1471.79 L700.427,1456.85 L891.953,1449.29 L892.09,1450.52 L891.979,1463.78 L893.038,1466.21 L892.852,1488.5 L893.911,1490.93 L893.77,1507.74 L893.195,1511.26 L641.001,1521.1 L660.835,1499.5" vector-effect="none" fill-rule="evenodd"/>
   <path d="M840.166,1257.5 L840.743,1257.26 L885.435,1255.7 L882.656,1284.15 L887.396,1303.94 L941.215,1306.93 L946.855,1310.11 L957.663,1324.03 L970.746,1333.47 L983.255,1347.77 L995.714,1357.62 L1008.51,1371.51 L1020.68,1381.59 L1026.54,1387.77 L889.206,1393.21 L888.754,1395.19 L891.865,1410.05 L890.738,1415 L733.377,1421.06 L746.748,1407.04 L753.376,1400.4 L761.219,1390.56 L776.269,1375.79 L785.012,1364.59 L799.627,1351.09 L808.796,1338.4 L822.994,1326.37 L820.734,1258.34 L840.166,1257.5" vector-effect="none" fill-rule="evenodd"/>
   <path d="M1717.26,-1054.78 L1764.66,99.0707 L1795.29,588.363 L1793.44,615.665 L1740.16,692.197 L1737.24,693.782 L1723.98,711.388 L1716.53,717.01 L1700.06,737.33 L1693.21,743.228 L1679.19,759.99 L1672.27,766.735 L1575.9,-1109.75 L1717.26,-1054.78" vector-effect="none" fill-rule="evenodd"/>
   <path d="M902.637,1739.42 L901.308,1719.46 L901.956,1717.69 L900.429,1694.74 L901.077,1692.97 L899.952,1676.07 L1052.83,1670.02 L1069.3,1652.35 L1069.67,1652.03 L1085.08,1635.5 L1088.31,1631.88 L1101.03,1644.32 L1105.59,1648.09 L1120,1662.24 L1126.24,1668.58 L1135.52,1676.3 L1151.45,1692.72 L1160.89,1700.31 L1176.66,1716.94 L1177.14,1717.31 L1196.57,1734.2 L1201.87,1741.35 L1221.25,1757.31 L1288.32,1756.16 L1291.47,1774.91 L1286.65,1806.8 L1291.87,1868.98 L1351.98,1763.4 L1360.43,1757.62 L1371.14,1742.37 L1378.4,1736.29 L1396.57,1716.88 L1396.6,1716.86 L1420.41,1691.43 L1420.43,1691.41 L1435.52,1675.3 L1444.28,1666.47 L1450.14,1659.24 L1468.11,1640.95 L1474.04,1633.8 L1490.11,1617.33 L1497.61,1608.62 L1512.16,1593.89 L1521.12,1583.57 L1535.99,1568.42 L1544.98,1558.15 L1553.1,1549.84 L1555.58,1552.38 L1615.04,3386.25 L1084.5,3179.96 L1048.88,1674.58 L1035.73,1687.65 L1032.06,1692.24 L1063.72,3171.88 L1025.74,3157.12 L991.809,1735.12 L987.673,1738.51 L903.633,1742.34 L902.033,1759.44 L904.612,1766.86 L902.322,1791.42 L903.532,1795.6 L910.197,1844.82 L912.62,1857.66 L919.958,2131.94 L983.331,3140.62 L770.256,3057.77 L731.354,1668.39 L740.589,1676.35 L752.034,1688.25 L766.032,1700.09 L777.354,1712.15 L791.55,1723.82 L802.677,1736.17 L811.471,1743.05 L902.637,1739.42" vector-effect="none" fill-rule="evenodd"/>
   <path d="M2390.16,706.586 L2366.82,684.253 L2364.7,683.251 L2353.27,671.997 L2290.15,654.176 L2289.92,652.425 L2288.48,607.343 L2292.53,558.334 L2276.87,-21.8676 L2269.59,-840.004 L2460,-765.961 L2547.25,847.029 L2538.97,840.03 L2530.65,832.064 L2513.01,817.236 L2504.73,809.214 L2487.04,794.443 L2478.81,786.347 L2462.36,772.733 L2452.89,763.404 L2440.47,753.464 L2433.54,746.488 L2417.41,731.3 L2415.57,730.012 L2392.11,707.808 L2390.16,706.586" vector-effect="none" fill-rule="evenodd"/>
   <path d="M1681.28,3412.01 L1622.9,1615.94 L1632.59,1624.32 L1644.09,1635.98 L1655.15,1645.42 L1817.68,1638.18 L1819.33,1630.8 L1816.59,1616.12 L1818.8,1606.07 L1816.1,1591.38 L1816.57,1589.18 L2023.52,1588.16 L2039.04,1571.23 L2045.48,1565.06 L2062.68,1546.38 L2066.55,1542.63 L2154.84,3596.14 L2067.87,3562.33 L1985.36,1627.69 L1983,1629.99 L1972.61,1642.09 L1968.06,1646.44 L1818.58,1647.12 L1818.1,1661.43 L1818.87,1663.45 L1818.12,1686.17 L1818.89,1688.19 L1818.26,1707.04 L1817.3,1710.91 L1819.76,1725.89 L1817.32,1735.64 L1820.76,1756.54 L1818.67,1766.3 L1763.88,1750.65 L1748.7,1735.95 L1748.65,1735.92 L1734.53,1722.26 L1791.12,3454.72 L1681.28,3412.01" vector-effect="none" fill-rule="evenodd"/>
   <path d="M2201.66,1104.32 L2188.69,1093.59 L2180.03,1083.88 L2163.68,1069.94 L2155.61,1061.24 L2138.67,1046.31 L2131.43,1038.6 L2113.66,1022.78 L2106.36,1015.15 L2094.39,1004.41 L2088.61,998.812 L2306.37,987.34 L2306.79,1001.64 L2306.17,1004.68 L2308.09,1023.46 L2306.86,1029.41 L2308.8,1048.18 L2307.74,1053.26 L2309.34,1072.91 L2308.36,1077.13 L2310.05,1097.64 L2309.06,1101.86 L2310.76,1122.37 L2309.75,1126.58 L2312.05,1154.02 L2312.19,1154.45 L2312.84,1199.56 L2312.06,1200.33 L2303.59,1200.82 L2286.34,1199.1 L2253.29,1205.26 L2240.95,1202.55 L2226.48,1205.4 L2216.02,1203.09 L2203.25,1205.61 L2201.66,1104.32" vector-effect="none" fill-rule="evenodd"/>
   <path d="M2025.75,991.308 L2019.86,997.316 L1808.73,1005.81 L1808.14,1003.08 L1810.1,992.979 L1806.92,978.384 L1808.89,968.278 L1805.71,953.683 L1805.75,953.479 L2049.67,939.027 L2049.88,942.487 L2050.34,953.973 L2050.81,958.722 L2051.02,963.829 L2049.96,965.05 L2035.8,979.607 L2025.75,991.308" vector-effect="none" fill-rule="evenodd"/>
   <path d="M4691.17,101.568 L4445.16,734.03 L4280.39,736.861 L3435.56,758.509 L2685.94,762.731 L2683.07,765.56 L2666.79,783.805 L2663.19,787.241 L2643.42,809.319 L2639.85,812.783 L2620.06,834.833 L2616.52,838.318 L2597.31,859.677 L2574.64,42.6691 L2540.13,-669.158 L2537.52,-735.817 L4691.17,101.568" vector-effect="none" fill-rule="evenodd"/>
   <path d="M2745.7,3825.87 L2589.02,1516.17 L2600.31,1503.47 L2600.75,1502.97 L2607.62,1509.41 L2611.98,1513.07 L2633.05,1531.81 L2633.9,1532.65 L2659.35,1555.27 L2660.19,1556.13 L2672.67,1567.2 L4052.73,1499.22 L4149.77,1493.45 L4132.45,1537.99 L2731.8,1621.52 L2732.59,1622.4 L2751.9,1639.51 L2757.27,1645.74 L2769.57,1656.45 L2781.94,1668.99 L2788.23,1673.25 L2806.61,1692.57 L2813.36,1696.23 L2821.66,1705.85 L3907.12,2117.29 L3177.27,3993.67 L2745.7,3825.87" vector-effect="none" fill-rule="evenodd"/>
   <path d="M2688.45,1189.01 L2708.79,1188.55 L2712.79,1341.44 L2706.04,1349.01 L2692.95,1361.11 L2685.69,1369.11 L2668.94,1385.64 L2660.77,1395.02 L2644.95,1410.76 L2636.73,1420.07 L2620.96,1435.86 L2615.88,1441.57 L2603.75,1454.13 L2596.96,1191.67 L2581.86,1191.58 L2579.36,1192.54 L2557.23,1192.4 L2554.73,1193.37 L2540.02,1193.27 L2532.59,1192.66 L2525.35,1194.91 L2509.27,1193.59 L2500.73,1195.89 L2485.93,1194.06 L2476.1,1196.71 L2461.3,1194.88 L2454.99,1196.58 L2436.69,1196.28 L2433.75,1197.4 L2412.06,1197.03 L2409.12,1198.16 L2387.43,1197.79 L2383.92,1199.14 L2347.06,1198.51 L2373.67,1141.07 L2385.29,1131.91 L2392.02,1121.37 L2409.1,1106.05 L2416.3,1096.34 L2432.93,1080.67 L2440.36,1071.3 L2456.76,1055.46 L2464.34,1046.27 L2480.59,1030.31 L2488.27,1021.25 L2503.12,1006.5 L2509.56,999.145 L2525.68,982.729 L2537.9,968.451 L2549.48,956.557 L2561.75,942.329 L2573.27,930.397 L2582.06,920.268 L2597.32,934.562 L2598.09,935.369 L2622.76,958.47 L2623.53,959.283 L2645.18,979.538 L2647.04,1189.89 L2663.74,1189.51 L2663.81,1189.54 L2688.37,1188.98 L2688.45,1189.01" vector-effect="none" fill-rule="evenodd"/>
  </g>
  <g font-family="Ubuntu" fill="#74d472" stroke="#232323" stroke-opacity="1" stroke-linejoin="bevel" font-weight="400" stroke-width="3.07087" fill-opacity="1" stroke-linecap="square" font-size="45.8333" font-style="normal" transform="matrix(0.999751,0,0,0.999751,77.154,64.295)">
   <path d="M589.789,1266.91 L601.486,1266.91 L603.589,1266.02 L614.936,1266.01 L623.95,1539.52 L618.238,1545.9 L610.925,1553.3 L609.806,1554.55 L596.526,1555.01 L586.335,1555.28 L582.044,1555.59 L561.708,1556.13 L557.417,1556.45 L542.952,1556.83 L533.323,1269.42 L536.08,1268.99 L551.395,1268.2 L552.229,1268.5 L576.02,1267.28 L576.853,1267.58 L589.789,1266.91" vector-effect="none" fill-rule="evenodd"/>
   <path d="M1082.53,1440.81 L1094.23,1429.13 L1105.64,1416.46 L1114.58,1408.14 L1129.92,1390.91 L1139,1382.69 L1154.2,1365.31 L1161.81,1358.71 L1178.49,1339.84 L1185.16,1334.7 L1202.74,1314 L1209.85,1309.58 L1216.96,1300.22 L1277.3,1272.88 L1278.49,1283.57 L1338.88,1299.51 L1351.07,1311 L1352.13,1311.48 L1377.37,1334.92 L1378.34,1335.52 L1403.22,1358.5 L1403.55,1358.9 L1423.34,1376.68 L1428.04,1380.46 L1442.01,1394.47 L1454.27,1404.57 L1468.33,1418.45 L1480.49,1428.63 L1486.16,1434.17 L1281.02,1440.05 L1280.45,1444.11 L1282.85,1456.18 L1281.07,1468.83 L1283.47,1480.9 L1282.96,1484.52 L1282.41,1495.89 L1544.86,1488.01 L1547.43,1490.33 L1550.9,1493.53 L1560.46,1482.68 L1564.3,1478.78 L1583.58,1457.66 L1583.62,1457.62 L1605.94,1433.18 L1606.83,1432.32 L1627.57,1409.38 L1628.42,1408.35 L1646.35,1389.86 L1651.53,1383.44 L1669.53,1365.01 L1674.63,1358.49 L1690.27,1342.67 L1692.99,1340.16 L1705.73,1324.67 L1716.4,1315.32 L1728.83,1299.44 L1740.14,1290.47 L1750.6,1275.49 L1755.62,1272.41 L1789.7,1216.38 L1812.29,1218.11 L1813.23,1244.44 L1872.44,1265.63 L1881.57,1275.92 L1886.04,1278.32 L1906.87,1300.29 L1909.75,1302.29 L1932.47,1324.9 L1933.52,1325.67 L1957.54,1349.5 L1958.55,1350.3 L1974.17,1365.76 L1979.36,1370.59 L1990.14,1381.95 L2000.24,1390.9 L2015.27,1406.57 L2025.29,1415.59 L2040.37,1431.19 L2043.87,1434.38 L2062.22,1452.12 L2065.62,1455.81 L2068.74,1458.83 L2080.34,1446.67 L2086.66,1439.22 L2103.76,1421.37 L2104.67,1420.47 L2120.97,1402.04 L2125.07,1398.05 L2145.2,1376.22 L2145.75,1375.72 L2162.28,1357.77 L2159.8,1205.33 L2165.77,1204.05 L2177.22,1206.39 L2190.4,1203.57 L2201.85,1205.91 L2203.25,1205.61 L2216.02,1203.09 L2226.48,1205.4 L2240.95,1202.55 L2253.29,1205.26 L2286.34,1199.1 L2303.59,1200.82 L2312.06,1200.33 L2313.05,1221.95 L2313.62,1251.76 L2314.1,1253.1 L2314.62,1280.12 L2315.54,1282.54 L2315.96,1304.82 L2316.89,1307.24 L2317.18,1322.84 L2318.85,1331.89 L2317.31,1340.97 L2319.67,1353.78 L2319.06,1365.63 L2321.69,1374.25 L2321.07,1386.65 L2323.49,1398.92 L2322.19,1407.69 L2325.3,1423.59 L2324.03,1432.35 L2327.07,1448.06 L2327.12,1448.25 L2326.35,1464 L2326.44,1464.29 L2590.53,1451.51 L2598.9,1459.4 L2603.75,1454.13 L2615.88,1441.57 L3521.82,1429.43 L4182.74,1408.69 L4192.01,1384.86 L3431.12,1384.69 L2685.69,1369.11 L2692.95,1361.11 L2706.04,1349.01 L2712.79,1341.44 L2729.78,1324.76 L2732.32,1321.61 L2753.93,1300.52 L2756.4,1297.26 L2773.78,1280.49 L4225.28,1299.32 L4168.93,1444.19 L2611.98,1513.07 L2607.62,1509.41 L2600.75,1502.97 L2600.31,1503.47 L2589.02,1516.17 L2745.7,3825.87 L2476.38,3721.16 L2353.57,1872.89 L2346.04,1823.36 L2344.5,1767.26 L2342.08,1729.65 L2342.08,1729.64 L2277.98,1724.46 L2268.74,1719.17 L2256.68,1704.78 L2243.22,1695.26 L2230.53,1681.56 L2217.55,1671.64 L2204.63,1658.33 L2191.9,1648.19 L2178.81,1635.06 L2166.27,1624.82 L2153.01,1611.76 L2140.61,1601.46 L2127.29,1588.49 L2114.93,1578.09 L2110.47,1573.79 L2094.52,1558.96 L2089.17,1554.56 L2071.11,1537.81 L2066.55,1542.63 L2062.68,1546.38 L2045.48,1565.06 L2039.04,1571.23 L2023.52,1588.16 L1816.57,1589.18 L1817.76,1572.27 L1816.35,1567.93 L1817.37,1547.54 L1816.08,1543.83 L1816.77,1529.97 L1816.76,1529.89 L1552.91,1544.78 L1553.1,1549.62 L1553.1,1549.84 L1544.98,1558.15 L1535.99,1568.42 L1521.12,1583.57 L1512.16,1593.89 L1497.61,1608.62 L1490.11,1617.33 L1474.04,1633.8 L1468.11,1640.95 L1450.14,1659.24 L1444.28,1666.47 L1435.52,1675.3 L1420.43,1691.41 L1420.41,1691.43 L1396.6,1716.86 L1396.57,1716.88 L1378.4,1736.29 L1371.14,1742.37 L1360.43,1757.62 L1351.98,1763.4 L1291.87,1868.98 L1286.65,1806.8 L1291.47,1774.91 L1288.32,1756.16 L1290.1,1744.77 L1287.68,1731.58 L1289.48,1720.04 L1288.39,1714.09 L1287.64,1696.64 L1288.02,1695.34 L1287.35,1679.68 L1286.31,1671.94 L1287.94,1663.96 L1287.05,1657.33 L1120,1662.24 L1105.59,1648.09 L1101.03,1644.32 L1088.31,1631.88 L1088.11,1626.85 L1088.22,1623.86 L1087.76,1612.37 L1087.62,1607 L1087.12,1597.81 L1087.28,1590.14 L1086.35,1573.09 L1086.51,1565.42 L1086.07,1557.31 L1085.76,1547.98 L1085.36,1541.65 L1085.49,1530.67 L1084.61,1516.93 L1084.74,1505.95 L1084.37,1500.13 L1084.02,1490.42 L1083.61,1483.38 L1083.77,1474.68 L1082.86,1458.66 L1083.01,1449.96 L1082.61,1442.95 L1082.53,1440.81" vector-effect="none" fill-rule="evenodd"/>
   <path d="M1177.15,1244.72 L1165.73,1242.58 L1152.52,1245.15 L1141.09,1243.02 L1127.88,1245.59 L1117.79,1243.71 L1115.69,1089.91 L1111.32,1085.04 L1095.21,1070.28 L1092.04,1067.5 L1080.53,1055.49 L1071.07,1047.07 L1070.57,1031.08 L1070.37,1029.14 L1069.95,1015.69 L1069.85,1013.56 L1069.47,1000.44 L1069.21,997.906 L1068.56,975.727 L1068.3,973.191 L1067.92,960.215 L1268.91,953.527 L1269.09,940.921 L1268.06,937.857 L1268.26,924.117 L1267.04,913.146 L1268.42,907.284 L1267.37,897.924 L1065.83,904.485 L1065.8,903.892 L1065.27,889.268 L1065.26,889.118 L1064.37,864.552 L1064.35,864.403 L1063.91,852.25 L1073.9,841.652 L1076.37,839.416 L1098.32,816.084 L1099.64,814.926 L1264.38,811.523 L1265.03,807.638 L1264.17,789.348 L1264.7,787.585 L1263.61,764.621 L1264.14,762.858 L1263.04,739.895 L1263.58,738.131 L1262.37,712.745 L1263.56,708.72 L1323.63,716.275 L1334.65,723.407 L1343.97,735.51 L1360.57,748.189 L1370.38,759.394 L1382.24,769.018 L1396.63,783.282 L1403.84,788.813 L1418.02,802.643 L1429.73,812.674 L1438.75,822.029 L1455.63,836.67 L1464.71,845.926 L1481.26,860.411 L1481.52,860.63 L1496.27,875.011 L1507.41,884.571 L1522.21,898.899 L1533.3,908.5 L1539.33,914.304 L1553.6,898.528 L1557.41,894.625 L1573.32,876.382 L1580.81,868.789 L1596.68,850.506 L1604.21,842.952 L1620.03,824.617 L1627.64,817.115 L1635.68,807.705 L1642.86,799.814 L1799.91,792.439 L1801.3,805.125 L1800.08,809.162 L1802.35,829.834 L1801.13,833.87 L1802.56,846.917 L1801.99,858.587 L1803.99,863.94 L1803.04,883.296 L1805.04,888.648 L1804.09,908.004 L1806.09,913.357 L1805.23,930.843 L1807.45,938.05 L1805.75,953.479 L1805.71,953.683 L1808.89,968.278 L1806.92,978.384 L1810.1,992.979 L1808.14,1003.08 L1808.73,1005.81 L1811.17,1019.04 L1809.2,1027.79 L1812.15,1043.75 L1812.01,1044.39 L1810.61,1061.17 L1810.86,1061.9 L1813.36,1079.91 L1811.73,1085.88 L1814.34,1104.62 L1812.71,1110.59 L1815.32,1129.33 L1813.68,1135.3 L1816.31,1154.05 L1814,1164.16 L1819.61,1198.57 L1761.16,1161.31 L1759.62,1158.56 L1745.06,1148.41 L1737.78,1138.91 L1718.82,1124.13 L1711.18,1115.42 L1692.62,1100.3 L1684.79,1091.91 L1669.76,1079.39 L1658.57,1068.4 L1646.93,1059.06 L1640.14,1052.5 L1622.64,1036.6 L1620.71,1035.1 L1596.43,1013.08 L1594.52,1011.57 L1570.23,989.555 L1568.34,988.032 L1544.03,966.033 L1542.15,964.501 L1541.12,963.569 L1529.84,975.733 L1522.24,984.398 L1512.18,994.972 L1502.46,1006.48 L1489.06,1020.48 L1479.39,1032.04 L1465.93,1045.99 L1460.33,1052.77 L1450.98,1062.95 L1441.08,1074.07 L1437.04,1077.85 L1419.64,1097.51 L1418.05,1099.55 L1400.69,1117.32 L1395,1124.93 L1377.45,1142.55 L1371.97,1150.44 L1358.48,1163.49 L1354.89,1166.69 L1345.91,1180.45 L1337.42,1186.82 L1306.43,1246.07 L1306.04,1246.19 L1278.19,1246.89 L1272.08,1240.78 L1240.16,1245.02 L1217.94,1241.14 L1201.81,1244.28 L1190.37,1242.15 L1177.15,1244.72" vector-effect="none" fill-rule="evenodd"/>
   <path d="M2276.87,-21.8676 L2292.53,558.334 L2288.48,607.343 L2289.92,652.425 L2290.15,654.176 L2353.27,671.997 L2364.7,683.251 L2366.82,684.253 L2390.16,706.586 L2392.11,707.808 L2415.57,730.012 L2417.41,731.3 L2433.54,746.488 L2440.47,753.464 L2452.89,763.404 L2462.36,772.733 L2295.79,785.611 L2295.59,803.559 L2297.29,809.113 L2297.09,828.245 L2298.78,833.799 L2298.66,845.783 L2300.2,858.491 L2299.31,863.336 L2300.14,870.272 L2301.58,882.78 L2300.59,888.032 L2302.84,907.478 L2301.85,912.73 L2303.72,929.006 L2049.88,942.487 L2049.67,939.027 L2049.09,926.65 L2049.09,926.153 L2047.95,901.946 L2047.96,901.449 L2046.82,877.242 L2046.82,876.744 L2046.44,868.66 L2055.92,858.461 L2065.07,848.092 L2073.24,839.936 L2079.42,832.892 L2093.16,817.664 L2097.08,813.927 L2117.14,791.609 L2121.11,787.909 L2141.12,765.537 L2145.17,761.888 L2159.17,746.116 L2116.91,-899.371 L2269.59,-840.004 L2276.87,-21.8676" vector-effect="none" fill-rule="evenodd"/>
   <path d="M1819.76,1725.89 L1817.3,1710.91 L1818.26,1707.04 L1818.89,1688.19 L1818.12,1686.17 L1818.87,1663.45 L1818.1,1661.43 L1818.58,1647.12 L1968.06,1646.44 L1953.28,1661.52 L2032.37,3548.52 L1883.94,3490.81 L1823.27,1882.11 L1823.8,1873.03 L1820.2,1792.47 L1818.67,1766.3 L1820.76,1756.54 L1817.32,1735.64 L1819.76,1725.89" vector-effect="none" fill-rule="evenodd"/>
   <path d="M2347.06,1198.51 L2342.48,1199.79 L2312.84,1199.56 L2312.19,1154.45 L2312.05,1154.02 L2309.75,1126.58 L2310.76,1122.37 L2309.06,1101.86 L2310.05,1097.64 L2308.36,1077.13 L2309.34,1072.91 L2307.74,1053.26 L2308.8,1048.18 L2306.86,1029.41 L2308.09,1023.46 L2306.17,1004.68 L2306.79,1001.64 L2509.56,999.145 L2503.12,1006.5 L2488.27,1021.25 L2480.59,1030.31 L2464.34,1046.27 L2456.76,1055.46 L2440.36,1071.3 L2432.93,1080.67 L2416.3,1096.34 L2409.1,1106.05 L2392.02,1121.37 L2385.29,1131.91 L2373.67,1141.07 L2347.06,1198.51" vector-effect="none" fill-rule="evenodd"/>
  </g>
  <g font-family="Ubuntu" fill="#bde731" stroke="#232323" stroke-opacity="1" stroke-linejoin="bevel" font-weight="400" stroke-width="3.07087" fill-opacity="1" stroke-linecap="square" font-size="45.8333" font-style="normal" transform="matrix(0.999751,0,0,0.999751,77.154,64.295)">
   <path d="M138.014,1278.86 L194.603,1281.57 L252.892,1336.72 L252.915,1336.73 L273.369,1356.08 L273.575,1356.2 L298.838,1380.06 L299.023,1380.18 L312.855,1393.23 L324.02,1404.04 L326.72,1406.06 L346.172,1424.77 L-1033.21,1465.73 L-976.233,1319.27 L-58.6592,1292.81 L138.014,1278.86" vector-effect="none" fill-rule="evenodd"/>
   <path d="M903.633,1742.34 L987.673,1738.51 L991.809,1735.12 L1025.74,3157.12 L983.331,3140.62 L919.958,2131.94 L912.62,1857.66 L910.197,1844.82 L903.532,1795.6 L902.322,1791.42 L904.612,1766.86 L902.033,1759.44 L903.633,1742.34" vector-effect="none" fill-rule="evenodd"/>
   <path d="M714.788,1441.8 L732.224,1422.13 L733.377,1421.06 L890.738,1415 L891.441,1434.82 L891.441,1434.82 L891.953,1449.29 L700.427,1456.85 L708.427,1447.89 L714.788,1441.8" vector-effect="none" fill-rule="evenodd"/>
   <path d="M864.484,762.641 L863.375,760.073 L863.419,737.933 L862.177,735.062 L862.213,713.092 L856.943,697.803 L857.36,650.26 L846.311,588.516 L761.444,-158.013 L737.024,-404.288 L709.507,-693.238 L665.757,-1200.06 L644.046,-1472.12 L1042.05,-1317.34 L1059.79,848.363 L1045.56,834.84 L1045.07,834.444 L1020.73,811.294 L1020.23,810.904 L1004.67,796.094 L865.52,802.929 L865.549,787.348 L864.441,784.78 L864.484,762.641" vector-effect="none" fill-rule="evenodd"/>
   <path d="M2027.46,-934.153 L2079.42,832.892 L2073.24,839.936 L2065.07,848.092 L2055.92,858.461 L2046.44,868.66 L2040.86,863.204 L2029.45,853.303 L2015.52,839.596 L2012.51,837.012 L2000.06,825.737 L1947.38,-965.293 L2027.46,-934.153" vector-effect="none" fill-rule="evenodd"/>
   <path d="M1035.73,1687.65 L1048.88,1674.58 L1084.5,3179.96 L1063.72,3171.88 L1032.06,1692.24 L1035.73,1687.65" vector-effect="none" fill-rule="evenodd"/>
   <path d="M1816.76,1529.89 L1816.77,1529.97 L1816.08,1543.83 L1817.37,1547.54 L1816.35,1567.93 L1577.43,1573.2 L1601.73,1596.34 L1606.96,1600.7 L1622.9,1615.94 L1681.28,3412.01 L1615.04,3386.25 L1555.58,1552.38 L1553.1,1549.84 L1553.1,1549.62 L1552.91,1544.78 L1816.76,1529.89" vector-effect="none" fill-rule="evenodd"/>
   <path d="M1657.29,1222.02 L1666.04,1223.77 L1678.75,1221.02 L1682.54,1221.38 L1690.27,1342.67 L1674.63,1358.49 L1669.53,1365.01 L1651.53,1383.44 L1646.35,1389.86 L1628.42,1408.35 L1627.57,1409.38 L1606.83,1432.32 L1605.94,1433.18 L1593.09,1228.61 L1608.11,1225.36 L1616.87,1227.11 L1632.7,1223.69 L1641.46,1225.44 L1657.29,1222.02" vector-effect="none" fill-rule="evenodd"/>
   <path d="M1813.68,1135.3 L1815.32,1129.33 L1812.71,1110.59 L1814.34,1104.62 L1811.73,1085.88 L1813.36,1079.91 L1810.86,1061.9 L1964.66,1055.75 L1976.68,1043.56 L1982.14,1036.91 L2000.88,1017.76 L2006.39,1011.18 L2013.38,1004 L2016.75,1208.75 L2004.17,1207.53 L1997.25,1209.76 L1979.54,1208.04 L1976.77,1208.93 L1956.31,1209.84 L1954.92,1209.32 L1939.37,1210.01 L1937.2,1085.1 L1922.77,1100.28 L1922.19,1101.11 L1898.45,1126.01 L1897.91,1126.9 L1876.8,1148.91 L1816.31,1154.05 L1813.68,1135.3" vector-effect="none" fill-rule="evenodd"/>
   <path d="M2117.79,1206.54 L2116.51,1206.06 L2100.44,1206.73 L2097.53,1206.35 L2094.39,1004.41 L2106.36,1015.15 L2113.66,1022.78 L2131.43,1038.6 L2138.67,1046.31 L2155.61,1061.24 L2163.68,1069.94 L2180.03,1083.88 L2188.69,1093.59 L2201.66,1104.32 L2203.25,1205.61 L2201.85,1205.91 L2190.4,1203.57 L2177.22,1206.39 L2165.77,1204.05 L2159.8,1205.33 L2142.42,1206.05 L2141.15,1205.57 L2117.79,1206.54" vector-effect="none" fill-rule="evenodd"/>
   <path d="M2580.39,877.246 L2569.39,867.589 L2557.79,856.242 L2557.16,855.693 L2547.25,847.029 L2460,-765.961 L2537.52,-735.817 L2540.13,-669.158 L2574.64,42.6691 L2597.31,859.677 L2596.72,860.346 L2582.94,874.368 L2580.39,877.246" vector-effect="none" fill-rule="evenodd"/>
   <path d="M2326.35,1464 L2327.12,1448.25 L2327.07,1448.06 L2324.03,1432.35 L2325.3,1423.59 L2322.19,1407.69 L2323.49,1398.92 L2321.07,1386.65 L2321.69,1374.25 L2319.06,1365.63 L2319.67,1353.78 L2317.31,1340.97 L2318.85,1331.89 L2317.18,1322.84 L2316.89,1307.24 L2315.96,1304.82 L2315.54,1282.54 L2314.62,1280.12 L2314.1,1253.1 L2313.62,1251.76 L2313.05,1221.95 L2312.06,1200.33 L2312.84,1199.56 L2342.48,1199.79 L2347.06,1198.51 L2383.92,1199.14 L2387.43,1197.79 L2409.12,1198.16 L2412.06,1197.03 L2433.75,1197.4 L2436.69,1196.28 L2454.99,1196.58 L2457.84,1333 L2464.59,1339.62 L2480.14,1352.76 L2485.46,1358.25 L2505.37,1375.21 L2510.74,1380.62 L2530.6,1397.63 L2536.01,1402.99 L2545.66,1411.3 L2560.71,1424.6 L2561.46,1425.35 L2585.94,1446.98 L2590.53,1451.51 L2326.44,1464.29 L2326.35,1464" vector-effect="none" fill-rule="evenodd"/>
   <path d="M4149.77,1493.45 L4052.73,1499.22 L2672.67,1567.2 L2660.19,1556.13 L2659.35,1555.27 L2633.9,1532.65 L2633.05,1531.81 L2611.98,1513.07 L4168.93,1444.19 L4149.77,1493.45" vector-effect="none" fill-rule="evenodd"/>
  </g>
  <g font-family="Ubuntu" fill="#d31e51" stroke="#232323" stroke-opacity="1" stroke-linejoin="bevel" font-weight="400" stroke-width="3.07087" fill-opacity="1" stroke-linecap="square" font-size="45.8333" font-style="normal" transform="matrix(0.999751,0,0,0.999751,77.154,64.295)">
   <path d="M731.354,1668.39 L770.256,3057.77 L701.694,3031.11 L660.789,1602.19 L664.249,1605.13 L685.255,1625.23 L689.609,1628.87 L710.587,1649 L714.979,1652.61 L731.354,1668.39" vector-effect="none" fill-rule="evenodd"/>
   <path d="M1067.36,944.536 L1067.25,943.47 L1066.44,919.821 L1066.32,918.755 L1065.83,904.485 L1267.37,897.924 L1268.42,907.284 L1267.04,913.146 L1268.26,924.117 L1268.06,937.857 L1269.09,940.921 L1268.91,953.527 L1067.92,960.215 L1067.83,958.361 L1067.36,944.536" vector-effect="none" fill-rule="evenodd"/>
  </g>
  <g font-family="Ubuntu" fill="#398bd7" stroke="#232323" stroke-opacity="1" stroke-linejoin="bevel" font-weight="400" stroke-width="3.07087" fill-opacity="1" stroke-linecap="square" font-size="45.8333" font-style="normal" transform="matrix(0.999751,0,0,0.999751,77.154,64.295)">
   <path d="M-1334.22,2239.42 L-1100.69,1639.16 L457.885,1591.61 L441.618,1608.44 L435.817,1615.19 L417.65,1633.92 L411.884,1640.71 L393.671,1659.39 L388.512,1665.57 L369.734,1684.87 L365.115,1690.57 L345.733,1710.34 L341.189,1716.14 L321.693,1735.82 L317.265,1741.78 L297.573,1761.3 L293.347,1767.6 L273.242,1786.79 L270.149,1792.73 L262.243,1799.59 L-84.4031,2725.44 L-1334.22,2239.42" vector-effect="none" fill-rule="evenodd"/>
   <path d="M312.855,1393.23 L299.023,1380.18 L298.838,1380.06 L273.575,1356.2 L273.369,1356.08 L252.915,1336.73 L252.892,1336.72 L194.603,1281.57 L218.06,1280.46 L241.732,1281.08 L248.303,1278.69 L271.042,1279.6 L275.532,1277.88 L295.667,1278.68 L300.157,1276.97 L309.023,1277.32 L322.414,1277.37 L324.792,1276.37 L347.038,1276.45 L349.416,1275.46 L365.073,1275.51 L359.385,1105.67 L369.475,1095.33 L374.505,1090.26 L381.997,1081.4 L398.308,1064.83 L405.853,1056.03 L414.266,1047.43 L421.681,1273.15 L416.755,1273.94 L424.259,1498.19 L410.978,1485.67 L-1058.29,1530.18 L-1033.21,1465.73 L346.172,1424.77 L326.72,1406.06 L324.02,1404.04 L312.855,1393.23" vector-effect="none" fill-rule="evenodd"/>
   <path d="M-455.715,-18.6548 L238.379,747.654 L238.788,749.331 L249.702,762.402 L259.161,768.278 L276.065,786.44 L284.746,792.744 L301.958,810.49 L310.324,817.01 L327.702,834.545 L335.898,841.194 L351.958,857.183 L353.32,858.603 L367.402,870.881 L-814.146,902.646 L-455.715,-18.6548" vector-effect="none" fill-rule="evenodd"/>
   <path d="M725.421,815.878 L717.334,823.513 L704.06,838.896 L866.161,831.501 L868.736,843.107 L866.655,853.423 L867.805,858.608 L1060.58,849.133 L1063.91,852.25 L1064.35,864.403 L1064.37,864.552 L1065.26,889.118 L1065.27,889.268 L1065.8,903.892 L870.669,913.585 L870.899,921.599 L616.571,934.111 L628.969,920.823 L635.106,914.335 L642.104,905.997 L658.819,888.408 L665.774,880.023 L679.77,865.382 L589.875,-1493.18 L644.046,-1472.12 L665.757,-1200.06 L709.507,-693.238 L737.024,-404.288 L780.698,754.877 L773.308,764.181 L764.693,771.492 L749.288,790.033 L741.015,797.545 L725.421,815.878" vector-effect="none" fill-rule="evenodd"/>
   <path d="M689.609,1628.87 L685.255,1625.23 L664.249,1605.13 L660.789,1602.19 L701.694,3031.11 L637.592,3006.19 L596.526,1555.01 L609.806,1554.55 L610.925,1553.3 L618.238,1545.9 L623.95,1539.52 L614.936,1266.01 L628.226,1265.48 L628.39,1265.54 L642.449,1264.99 L653.035,1265.23 L656.588,1263.81 L677.659,1264.3 L681.212,1262.88 L696.525,1263.23 L690.254,1074.32 L698.728,1082.03 L706.089,1089.44 L720.666,1101.77 L731.523,1112.89 L746.222,1125.11 L756.958,1136.4 L771.853,1148.45 L782.397,1160.03 L797.649,1171.78 L807.915,1184.03 L822.021,1193.77 L827.925,1202.34 L886.684,1234.49 L891.134,1249.12 L889.13,1252.16 L885.435,1255.7 L840.743,1257.26 L840.166,1257.5 L820.734,1258.34 L822.994,1326.37 L808.796,1338.4 L799.627,1351.09 L785.012,1364.59 L776.269,1375.79 L761.219,1390.56 L753.376,1400.4 L746.748,1407.04 L733.377,1421.06 L732.224,1422.13 L714.788,1441.8 L708.427,1447.89 L700.427,1456.85 L686.749,1471.79 L684.635,1473.8 L662.931,1497.47 L660.835,1499.5 L641.001,1521.1 L893.195,1511.26 L893.77,1507.74 L893.911,1490.93 L892.852,1488.5 L893.038,1466.21 L891.979,1463.78 L892.09,1450.52 L891.953,1449.29 L891.441,1434.82 L891.441,1434.82 L890.738,1415 L891.865,1410.05 L888.754,1395.19 L889.206,1393.21 L1026.54,1387.77 L1043.34,1404.06 L1045.65,1405.9 L1063.45,1423.1 L1068,1427.84 L1081.32,1439.56 L1082.53,1440.81 L1082.61,1442.95 L1083.01,1449.96 L1082.86,1458.66 L1083.77,1474.68 L1083.61,1483.38 L1084.02,1490.42 L1084.37,1500.13 L1084.74,1505.95 L1084.61,1516.93 L1085.49,1530.67 L1085.36,1541.65 L1085.76,1547.98 L1086.07,1557.31 L1086.51,1565.42 L1086.35,1573.09 L1087.28,1590.14 L1087.12,1597.81 L1087.62,1607 L1087.76,1612.37 L896.933,1620 L896.802,1620.63 L899.967,1634.37 L897.686,1645.35 L900.851,1659.09 L898.571,1670.07 L899.952,1676.07 L901.077,1692.97 L900.429,1694.74 L901.956,1717.69 L901.308,1719.46 L902.637,1739.42 L811.471,1743.05 L802.677,1736.17 L791.55,1723.82 L777.354,1712.15 L766.032,1700.09 L752.034,1688.25 L740.589,1676.35 L731.354,1668.39 L714.979,1652.61 L710.587,1649 L689.609,1628.87" vector-effect="none" fill-rule="evenodd"/>
   <path d="M522.577,975.614 L526.131,975.493 L536.08,1268.99 L533.323,1269.42 L520.705,1268.54 L514.446,1270.74 L496.081,1269.46 L489.822,1271.66 L479.411,1270.94 L469.978,987.878 L480.215,977.243 L481.897,977.161 L486.34,977.156 L506.52,976.181 L510.962,976.175 L522.577,975.614" vector-effect="none" fill-rule="evenodd"/>
   <path d="M1151.45,1692.72 L1135.52,1676.3 L1126.24,1668.58 L1120,1662.24 L1287.05,1657.33 L1287.94,1663.96 L1286.31,1671.94 L1287.35,1679.68 L1288.02,1695.34 L1287.64,1696.64 L1288.39,1714.09 L1289.48,1720.04 L1287.68,1731.58 L1290.1,1744.77 L1288.32,1756.16 L1221.25,1757.31 L1201.87,1741.35 L1196.57,1734.2 L1177.14,1717.31 L1176.66,1716.94 L1160.89,1700.31 L1151.45,1692.72" vector-effect="none" fill-rule="evenodd"/>
   <path d="M1347.86,1244.3 L1306.43,1246.07 L1337.42,1186.82 L1345.91,1180.45 L1354.89,1166.69 L1358.48,1163.49 L1363.67,1243.23 L1348.79,1243.86 L1347.86,1244.3" vector-effect="none" fill-rule="evenodd"/>
   <path d="M1264.38,811.523 L1099.64,814.926 L1121.74,792.291 L1122.75,790.997 L1146.2,767.047 L1147.17,765.704 L1170.67,741.803 L1171.59,740.358 L1192.65,719.131 L1194.91,714.368 L1202.51,707.311 L1263.2,692.745 L1263.56,708.72 L1262.37,712.745 L1263.58,738.131 L1263.04,739.895 L1264.14,762.858 L1263.61,764.621 L1264.7,787.585 L1264.17,789.348 L1265.03,807.638 L1264.38,811.523" vector-effect="none" fill-rule="evenodd"/>
   <path d="M1947.38,-965.293 L2000.06,825.737 L2012.51,837.012 L1802.56,846.917 L1801.13,833.87 L1802.35,829.834 L1800.08,809.162 L1801.3,805.125 L1799.91,792.439 L1800.34,780.413 L1798.56,775.796 L1799.28,755.705 L1798.66,754.091 L1797.17,732.534 L1797.68,731.022 L1796.08,707.828 L1796.6,706.314 L1794.57,676.956 L1794.21,676.021 L1793.44,615.665 L1795.29,588.363 L1764.66,99.0707 L1717.26,-1054.78 L1947.38,-965.293" vector-effect="none" fill-rule="evenodd"/>
   <path d="M1820.2,1792.47 L1823.8,1873.03 L1823.27,1882.11 L1883.94,3490.81 L1791.12,3454.72 L1734.53,1722.26 L1748.65,1735.92 L1748.7,1735.95 L1763.88,1750.65 L1818.67,1766.3 L1820.2,1792.47" vector-effect="none" fill-rule="evenodd"/>
   <path d="M1632.59,1624.32 L1622.9,1615.94 L1606.96,1600.7 L1601.73,1596.34 L1577.43,1573.2 L1816.35,1567.93 L1817.76,1572.27 L1816.57,1589.18 L1816.1,1591.38 L1818.8,1606.07 L1816.59,1616.12 L1819.33,1630.8 L1817.68,1638.18 L1655.15,1645.42 L1644.09,1635.98 L1632.59,1624.32" vector-effect="none" fill-rule="evenodd"/>
   <path d="M1283.47,1480.9 L1281.07,1468.83 L1282.85,1456.18 L1280.45,1444.11 L1281.02,1440.05 L1486.16,1434.17 L1502.98,1449.86 L1506.72,1452.91 L1529.22,1473.85 L1532.94,1476.93 L1544.86,1488.01 L1282.41,1495.89 L1282.96,1484.52 L1283.47,1480.9" vector-effect="none" fill-rule="evenodd"/>
   <path d="M2145.75,1375.72 L2145.2,1376.22 L2125.07,1398.05 L2120.97,1402.04 L2104.67,1420.47 L2103.76,1421.37 L2100.44,1206.73 L2116.51,1206.06 L2117.79,1206.54 L2141.15,1205.57 L2142.42,1206.05 L2159.8,1205.33 L2162.28,1357.77 L2145.75,1375.72" vector-effect="none" fill-rule="evenodd"/>
   <path d="M1898.45,1126.01 L1922.19,1101.11 L1922.77,1100.28 L1937.2,1085.1 L1939.37,1210.01 L1931.69,1211.19 L1923.7,1209.09 L1908.37,1211.46 L1899.06,1209.41 L1885.03,1212.2 L1872.74,1209.49 L1846.51,1214.5 L1819.88,1210.92 L1820.34,1202.1 L1819.61,1198.57 L1814,1164.16 L1816.31,1154.05 L1876.8,1148.91 L1897.91,1126.9 L1898.45,1126.01" vector-effect="none" fill-rule="evenodd"/>
   <path d="M2094.39,1004.41 L2097.53,1206.35 L2083.08,1207.74 L2078.57,1206.3 L2058.45,1208.23 L2053.94,1206.79 L2040.14,1208.11 L2029.3,1206.96 L2021.88,1209.29 L2016.75,1208.75 L2013.38,1004 L2019.86,997.316 L2025.75,991.308 L2035.8,979.607 L2049.96,965.05 L2051.02,963.829 L2050.81,958.722 L2050.34,953.973 L2049.88,942.487 L2303.72,929.006 L2301.85,912.73 L2302.84,907.478 L2300.59,888.032 L2301.58,882.78 L2300.14,870.272 L2299.31,863.336 L2300.2,858.491 L2298.66,845.783 L2298.78,833.799 L2297.09,828.245 L2297.29,809.113 L2295.59,803.559 L2295.79,785.611 L2462.36,772.733 L2478.81,786.347 L2487.04,794.443 L2504.73,809.214 L2513.01,817.236 L2530.65,832.064 L2538.97,840.03 L2547.25,847.029 L2557.16,855.693 L2557.79,856.242 L2569.39,867.589 L2580.39,877.246 L2580.84,885.614 L2580.85,891.708 L2581.84,910.326 L2581.85,916.42 L2582.06,920.268 L2573.27,930.397 L2561.75,942.329 L2549.48,956.557 L2537.9,968.451 L2525.68,982.729 L2509.56,999.145 L2306.79,1001.64 L2306.37,987.34 L2088.61,998.812 L2094.39,1004.41" vector-effect="none" fill-rule="evenodd"/>
   <path d="M1983,1629.99 L1985.36,1627.69 L2067.87,3562.33 L2032.37,3548.52 L1953.28,1661.52 L1968.06,1646.44 L1972.61,1642.09 L1983,1629.99" vector-effect="none" fill-rule="evenodd"/>
   <path d="M2276.68,3643.51 L2191.9,1648.19 L2204.63,1658.33 L2217.55,1671.64 L2230.53,1681.56 L2243.22,1695.26 L2256.68,1704.78 L2268.74,1719.17 L2277.98,1724.46 L2342.08,1729.64 L2342.08,1729.65 L2344.5,1767.26 L2346.04,1823.36 L2353.57,1872.89 L2476.38,3721.16 L2276.68,3643.51" vector-effect="none" fill-rule="evenodd"/>
   <path d="M2579.36,1192.54 L2581.86,1191.58 L2596.96,1191.67 L2603.75,1454.13 L2598.9,1459.4 L2590.53,1451.51 L2585.94,1446.98 L2561.46,1425.35 L2560.71,1424.6 L2545.66,1411.3 L2540.02,1193.27 L2554.73,1193.37 L2557.23,1192.4 L2579.36,1192.54" vector-effect="none" fill-rule="evenodd"/>
   <path d="M4182.74,1408.69 L3521.82,1429.43 L2615.88,1441.57 L2620.96,1435.86 L2636.73,1420.07 L2644.95,1410.76 L2660.77,1395.02 L2668.94,1385.64 L2685.69,1369.11 L3431.12,1384.69 L4192.01,1384.86 L4182.74,1408.69" vector-effect="none" fill-rule="evenodd"/>
   <path d="M3488.09,1131.85 L4314.12,1070.92 L4225.28,1299.32 L2773.78,1280.49 L2780.46,1271.99 L2795.5,1259.83 L2804.03,1247.22 L2810.78,1242.78 L2843.48,1183.85 L2891.54,1178.52 L3055.94,1171.82 L3488.09,1131.85" vector-effect="none" fill-rule="evenodd"/>
   <path d="M2781.94,1668.99 L2769.57,1656.45 L2757.27,1645.74 L2751.9,1639.51 L2732.59,1622.4 L2731.8,1621.52 L4132.45,1537.99 L3907.12,2117.29 L2821.66,1705.85 L2813.36,1696.23 L2806.61,1692.57 L2788.23,1673.25 L2781.94,1668.99" vector-effect="none" fill-rule="evenodd"/>
  </g>
  <g font-family="Ubuntu" fill="#77efcf" stroke="#232323" stroke-opacity="1" stroke-linejoin="bevel" font-weight="400" stroke-width="3.07087" fill-opacity="1" stroke-linecap="square" font-size="45.8333" font-style="normal" transform="matrix(0.999751,0,0,0.999751,77.154,64.295)">
   <path d="M896.802,1620.63 L896.933,1620 L1087.76,1612.37 L1088.22,1623.86 L1088.11,1626.85 L1088.31,1631.88 L1085.08,1635.5 L1069.67,1652.03 L1069.3,1652.35 L1052.83,1670.02 L899.952,1676.07 L898.571,1670.07 L900.851,1659.09 L897.686,1645.35 L899.967,1634.37 L896.802,1620.63" vector-effect="none" fill-rule="evenodd"/>
   <path d="M896.396,1247.87 L943.861,1248.25 L946.359,1247.32 L969.586,1247.54 L971.32,1246.89 L994.222,1247.1 L995.956,1246.45 L1018.86,1246.67 L1020.59,1246.02 L1043.49,1246.23 L1045.23,1245.59 L1061.05,1245.73 L1063.45,1423.1 L1045.65,1405.9 L1043.34,1404.06 L1026.54,1387.77 L1020.68,1381.59 L1008.51,1371.51 L995.714,1357.62 L983.255,1347.77 L970.746,1333.47 L957.663,1324.03 L946.855,1310.11 L941.215,1306.93 L887.396,1303.94 L882.656,1284.15 L885.435,1255.7 L889.13,1252.16 L891.134,1249.12 L896.396,1247.87" vector-effect="none" fill-rule="evenodd"/>
   <path d="M2015.52,839.596 L2029.45,853.303 L2040.86,863.204 L2046.44,868.66 L2046.82,876.744 L2046.82,877.242 L2047.96,901.449 L2047.95,901.946 L2049.09,926.153 L2049.09,926.65 L2049.67,939.027 L1805.75,953.479 L1807.45,938.05 L1805.23,930.843 L1806.09,913.357 L1804.09,908.004 L1805.04,888.648 L1803.04,883.296 L1803.99,863.94 L1801.99,858.587 L1802.56,846.917 L2012.51,837.012 L2015.52,839.596" vector-effect="none" fill-rule="evenodd"/>
   <path d="M1693.21,743.228 L1700.06,737.33 L1716.53,717.01 L1723.98,711.388 L1737.24,693.782 L1740.16,692.197 L1793.44,615.665 L1794.21,676.021 L1794.57,676.956 L1796.6,706.314 L1796.08,707.828 L1797.68,731.022 L1797.17,732.534 L1798.66,754.091 L1679.19,759.99 L1693.21,743.228" vector-effect="none" fill-rule="evenodd"/>
   <path d="M780.698,754.877 L737.024,-404.288 L761.444,-158.013 L846.311,588.516 L808.346,724.473 L796.705,736.601 L795.648,738.839 L780.698,754.877" vector-effect="none" fill-rule="evenodd"/>
   <path d="M2480.14,1352.76 L2464.59,1339.62 L2457.84,1333 L2454.99,1196.58 L2461.3,1194.88 L2476.1,1196.71 L2485.93,1194.06 L2500.73,1195.89 L2509.27,1193.59 L2525.35,1194.91 L2532.59,1192.66 L2540.02,1193.27 L2545.66,1411.3 L2536.01,1402.99 L2530.6,1397.63 L2510.74,1380.62 L2505.37,1375.21 L2485.46,1358.25 L2480.14,1352.76" vector-effect="none" fill-rule="evenodd"/>
   <path d="M2773.78,1280.49 L2756.4,1297.26 L2753.93,1300.52 L2732.32,1321.61 L2729.78,1324.76 L2712.79,1341.44 L2708.79,1188.55 L2688.45,1189.01 L2688.37,1188.98 L2663.81,1189.54 L2663.74,1189.51 L2647.04,1189.89 L2645.18,979.538 L2623.53,959.283 L2622.76,958.47 L2598.09,935.369 L2597.32,934.562 L2582.06,920.268 L2581.85,916.42 L2581.84,910.326 L2580.85,891.708 L2580.84,885.614 L2580.39,877.246 L2582.94,874.368 L2596.72,860.346 L2597.31,859.677 L2616.52,838.318 L2620.06,834.833 L2639.85,812.783 L2643.42,809.319 L2663.19,787.241 L2666.79,783.805 L2683.07,765.56 L2685.94,762.731 L3435.56,758.509 L4280.39,736.861 L4445.16,734.03 L4314.12,1070.92 L3488.09,1131.85 L3055.94,1171.82 L2891.54,1178.52 L2843.48,1183.85 L2810.78,1242.78 L2804.03,1247.22 L2795.5,1259.83 L2780.46,1271.99 L2773.78,1280.49" vector-effect="none" fill-rule="evenodd"/>
  </g>
  <g font-family="Ubuntu" fill="none" stroke="#000000" stroke-opacity="1" stroke-linejoin="bevel" font-weight="400" stroke-width="1" stroke-linecap="square" font-size="45.8333" font-style="normal" transform="matrix(0.999751,0,0,0.999751,77.154,64.295)"/>
  <g font-family="Ubuntu" fill="none" stroke="#000000" stroke-opacity="1" stroke-linejoin="bevel" font-weight="400" stroke-width="1" stroke-linecap="square" font-size="45.8333" font-style="normal" transform="matrix(11.8081,0,0,11.8081,77.154,64.295)"/>
  <g font-family="Ubuntu" fill="none" stroke="#000000" stroke-opacity="1" stroke-linejoin="bevel" font-weight="400" stroke-width="1" stroke-linecap="square" font-size="45.8333" font-style="normal" transform="matrix(11.8081,0,0,11.8081,77.154,64.295)"/>
  <g font-family="Ubuntu" fill="none" stroke="#000000" stroke-opacity="1" stroke-linejoin="bevel" font-weight="400" stroke-width="1" stroke-linecap="square" font-size="45.8333" font-style="normal" transform="matrix(11.8081,0,0,11.8081,77.154,64.295)"/>
  <g font-family="Ubuntu" fill="none" stroke="#000000" stroke-opacity="1" stroke-linejoin="bevel" font-weight="400" stroke-width="1" stroke-linecap="square" font-size="45.8333" font-style="normal" transform="matrix(1,0,0,1,0,0)"/>
  <g font-family="Ubuntu" fill="none" stroke="#000000" stroke-opacity="1" stroke-linejoin="bevel" font-weight="400" stroke-width="1" stroke-linecap="square" font-size="45.8333" font-style="normal" transform="matrix(11.8081,0,0,11.8081,77.154,64.295)"/>
  <g font-family="Ubuntu" fill="none" stroke="#000000" stroke-opacity="1" stroke-linejoin="bevel" font-weight="400" stroke-width="1" stroke-linecap="square" font-size="45.8333" font-style="normal" transform="matrix(11.8081,0,0,11.8081,77.154,64.295)"/>
  <g font-family="Ubuntu" fill="none" stroke="#000000" stroke-opacity="1" stroke-linejoin="bevel" font-weight="400" stroke-width="1" stroke-linecap="square" font-size="45.8333" font-style="normal" transform="matrix(11.8081,0,0,11.8081,77.154,64.295)"/>
  <g font-family="Ubuntu" fill="none" stroke="#000000" stroke-opacity="1" stroke-linejoin="bevel" font-weight="400" stroke-width="1" stroke-linecap="square" font-size="45.8333" font-style="normal" transform="matrix(11.8081,0,0,11.8081,77.154,64.295)"/>
  <g font-family="Ubuntu" fill="none" stroke="#000000" stroke-opacity="1" stroke-linejoin="bevel" font-weight="400" stroke-width="1" stroke-linecap="square" font-size="45.8333" font-style="normal" transform="matrix(1,0,0,1,0,0)"/>
 </g>
 <metadata>
  <rdf:RDF xmlns:rdfs="http://www.w3.org/2000/01/rdf-schema#" xmlns:dc="http://purl.org/dc/elements/1.1/" xmlns:rdf="http://www.w3.org/1999/02/22-rdf-syntax-ns#">
   <rdf:Description dc:title="" dc:date="2024-02-02T14:00:43" dc:format="image/svg+xml" dc:identifier="" dc:description="">
    <dc:creator>
     <rdf:Bag>
      <rdf:li>kaue</rdf:li>
     </rdf:Bag>
    </dc:creator>
    <dc:publisher>
     <rdf:Bag>
      <rdf:li>QGIS 3.28.15-Firenze</rdf:li>
     </rdf:Bag>
    </dc:publisher>
    <dc:subject>
     <rdf:Bag/>
    </dc:subject>
   </rdf:Description>
   <cc:Work rdf:about="">
    <dc:format>image/svg+xml</dc:format>
    <dc:title></dc:title>
    <dc:date>2024-02-02T14:00:43</dc:date>
    <dc:identifier></dc:identifier>
    <dc:description></dc:description>
    <dc:creator>
     <cc:Agent>
      <dc:title>kaue</dc:title>
     </cc:Agent>
    </dc:creator>
    <dc:publisher>
     <cc:Agent>
      <dc:title>QGIS 3.28.15-Firenze</dc:title>
     </cc:Agent>
    </dc:publisher>
   </cc:Work>
  </rdf:RDF>
 </metadata>
</svg>
