<?xml version='1.0' encoding='UTF-8' standalone='no'?>
<svg xmlns:cc="http://creativecommons.org/ns#" width="296.926mm" version="1.2" height="209.973mm" viewBox="0 0 3507 2480" xmlns="http://www.w3.org/2000/svg" xmlns:xlink="http://www.w3.org/1999/xlink" baseProfile="tiny">
 <defs/>
 <g fill="none" stroke="black" stroke-linejoin="bevel" stroke-width="1" stroke-linecap="square" fill-rule="evenodd">
  <g font-family="Ubuntu" fill="none" stroke="#000000" stroke-opacity="1" stroke-linejoin="bevel" font-weight="400" stroke-width="1" stroke-linecap="square" font-size="45.8333" font-style="normal" transform="matrix(1,0,0,1,0,0)"/>
  <g font-family="Ubuntu" fill="none" stroke="#000000" stroke-opacity="1" stroke-linejoin="bevel" font-weight="400" stroke-width="1" stroke-linecap="square" font-size="45.8333" font-style="normal" transform="matrix(1,0,0,1,0,0)"/>
  <g font-family="Ubuntu" fill="none" stroke="#000000" stroke-opacity="1" stroke-linejoin="bevel" font-weight="400" stroke-width="1" stroke-linecap="square" font-size="45.8333" font-style="normal" transform="matrix(11.8081,0,0,11.8081,0,0)"/>
  <g font-family="Ubuntu" fill="none" stroke="#000000" stroke-opacity="1" stroke-linejoin="bevel" font-weight="400" stroke-width="1" stroke-linecap="square" font-size="45.8333" font-style="normal" transform="matrix(0.999751,0,0,0.999751,0,0)"/>
  <g font-family="Ubuntu" fill="#ffffff" stroke="none" font-weight="400" fill-opacity="1" font-size="45.8333" font-style="normal" transform="matrix(0.999751,0,0,0.999751,0,0)">
   <path d="M-2,-2 L3510,-2 L3510,2483 L-2,2483 L-2,-2" vector-effect="none" fill-rule="evenodd"/>
  </g>
  <g font-family="Ubuntu" fill="none" stroke="#000000" stroke-opacity="1" stroke-linejoin="bevel" font-weight="400" stroke-width="1" stroke-linecap="square" font-size="45.8333" font-style="normal" transform="matrix(0.999751,0,0,0.999751,0,0)"/>
  <g font-family="Ubuntu" fill="none" stroke="#000000" stroke-opacity="1" stroke-linejoin="bevel" font-weight="400" stroke-width="1" stroke-linecap="square" font-size="45.8333" font-style="normal" transform="matrix(11.8081,0,0,11.8081,0,0)"/>
  <g font-family="Ubuntu" fill="none" stroke="#000000" stroke-opacity="1" stroke-linejoin="bevel" font-weight="400" stroke-width="1" stroke-linecap="square" font-size="45.8333" font-style="normal" transform="matrix(11.8081,0,0,11.8081,0,0)"/>
  <g font-family="Ubuntu" fill="none" stroke="#000000" stroke-opacity="1" stroke-linejoin="bevel" font-weight="400" stroke-width="1" stroke-linecap="square" font-size="45.8333" font-style="normal" transform="matrix(11.8081,0,0,11.8081,0,0)"/>
  <g font-family="Ubuntu" fill="none" stroke="#000000" stroke-opacity="1" stroke-linejoin="bevel" font-weight="400" stroke-width="1" stroke-linecap="square" font-size="45.8333" font-style="normal" transform="matrix(11.8081,0,0,11.8081,0,0)"/>
  <g font-family="Ubuntu" fill="none" stroke="#000000" stroke-opacity="1" stroke-linejoin="bevel" font-weight="400" stroke-width="1" stroke-linecap="square" font-size="45.8333" font-style="normal" transform="matrix(11.8081,0,0,11.8081,77.154,64.295)"/>
  <g font-family="Ubuntu" fill="#ffffff" stroke="none" font-weight="400" fill-opacity="1" font-size="45.8333" font-style="normal" transform="matrix(11.8081,0,0,11.8081,77.154,64.295)">
   <path d="M0,0 L284.229,0 L284.229,198.198 L0,198.198 L0,0" vector-effect="none" fill-rule="evenodd"/>
  </g>
  <g font-family="Ubuntu" fill="none" stroke="#000000" stroke-opacity="1" stroke-linejoin="bevel" font-weight="400" stroke-width="1" stroke-linecap="square" font-size="45.8333" font-style="normal" transform="matrix(11.8081,0,0,11.8081,77.154,64.295)"/>
  <g font-family="Ubuntu" fill="none" stroke="#000000" stroke-opacity="1" stroke-linejoin="bevel" font-weight="400" stroke-width="1" stroke-linecap="square" font-size="45.8333" font-style="normal" transform="matrix(11.8081,0,0,11.8081,77.154,64.295)"/>
  <g font-family="Ubuntu" fill="#000000" stroke="none" font-weight="400" fill-opacity="0" font-size="45.8333" font-style="normal" transform="matrix(0.999751,0,0,0.999751,77.154,64.295)">
   <rect width="3357" y="0" height="2341" x="0"/>
  </g>
  <g font-family="Ubuntu" fill="none" stroke="#000000" stroke-opacity="1" stroke-linejoin="bevel" font-weight="400" stroke-width="1" stroke-linecap="square" font-size="45.8333" font-style="normal" transform="matrix(0.999751,0,0,0.999751,77.154,64.295)"/>
  <g font-family="Ubuntu" fill="#4d1fe3" stroke="#232323" stroke-opacity="1" stroke-linejoin="bevel" font-weight="400" stroke-width="3.07087" fill-opacity="1" stroke-linecap="square" font-size="45.8333" font-style="normal" transform="matrix(0.999751,0,0,0.999751,77.154,64.295)">
   <path d="M1622.23,-1176.08 L1654.21,773.195 L1661.36,766.696 L1780.96,764.969 L1781.53,766.604 L1780.11,786.657 L1781.73,791.334 L1780.87,803.337 L1623.67,805.227 L1616.22,812.863 L1607.85,821.986 L1599.98,829.218 L1583.54,846.99 L1575.74,854.276 L1559.24,871.994 L1551.5,879.321 L1534.96,896.998 L1531.02,900.766 L1497.08,-1229.85 L1622.23,-1176.08" vector-effect="none" fill-rule="evenodd"/>
   <path d="M2157.37,-946.18 L2141.53,769.581 L2126.99,784.855 L2122.81,788.36 L2102.04,810.019 L2097.94,813.579 L2077.11,835.184 L2073.07,838.782 L2058.8,853.521 L2068.93,-984.174 L2157.37,-946.18" vector-effect="none" fill-rule="evenodd"/>
   <path d="M2037.98,3647.41 L2021.18,1562.38 L2025.9,1557.72 L2043.36,1575.09 L2048.56,1579.67 L2063.97,1595.05 L2068.28,1599.5 L2080.27,1610.32 L2093.14,1623.75 L2105.17,1634.48 L2117.96,1648 L2130.14,1658.67 L2142.76,1672.24 L2158.08,3699 L2037.98,3647.41" vector-effect="none" fill-rule="evenodd"/>
   <path d="M1781.95,1038.87 L1784.22,1030.19 L1782.24,1016.89 L1993.54,1015.77 L1986.83,1022.22 L1979.6,1029.15 L1973.85,1035.53 L1954.46,1054.02 L1948.77,1060.47 L1936.33,1072.24 L1782.41,1073.02 L1782.19,1072.28 L1784.17,1055.56 L1784.34,1054.92 L1781.95,1038.87" vector-effect="none" fill-rule="evenodd"/>
  </g>
  <g font-family="Ubuntu" fill="#cf7521" stroke="#232323" stroke-opacity="1" stroke-linejoin="bevel" font-weight="400" stroke-width="3.07087" fill-opacity="1" stroke-linecap="square" font-size="45.8333" font-style="normal" transform="matrix(0.999751,0,0,0.999751,77.154,64.295)">
   <path d="M381.759,1236.28 L386.709,1235.65 L387.176,1009.82 L378.468,1018.12 L370.621,1026.65 L353.741,1042.64 L345.944,1051.23 L340.74,1056.13 L330.296,1066.1 L330.053,1236.04 L314.408,1235.44 L311.997,1236.35 L289.766,1235.5 L287.355,1236.41 L273.974,1235.89 L265.125,1235.23 L260.579,1236.79 L240.484,1235.28 L235.937,1236.84 L213.244,1235.14 L206.593,1237.3 L182.957,1235.86 L159.476,1236.15 L103.016,1231.46 L-94.0246,1238.54 L-1002.46,1233.02 L-825.939,822.325 L346.502,831.738 L332.857,818.976 L331.545,817.51 L316.054,800.97 L308.095,794.039 L291.339,775.908 L283.205,769.1 L266.624,750.764 L258.168,744.16 L241.908,725.42 L232.66,719.217 L222.209,705.774 L221.859,704.083 L-438.755,-78.503 L280.719,-1752.44 L651.121,-1593.3 L658.872,837.144 L644.373,851.287 L637.13,859.424 L619.811,876.419 L612.527,884.508 L606.167,890.778 L593.313,903.626 L847.922,899.997 L847.972,891.979 L1043.33,889.103 L1043.34,889.696 L1043.33,903.974 L1043.4,905.044 L1043.39,928.706 L1043.46,929.776 L1043.45,943.61 L1043.48,945.465 L1043.4,958.446 L1043.58,960.99 L1043.45,983.178 L1043.62,985.722 L1043.54,998.85 L1043.57,1000.98 L1043.52,1014.43 L1043.65,1016.38 L1043.59,1032.38 L1052.75,1041.12 L1063.84,1053.53 L1066.9,1056.42 L1082.49,1071.73 L1086.69,1076.75 L1083.42,1230.53 L1093.44,1232.76 L1106.74,1230.65 L1118.08,1233.18 L1131.37,1231.08 L1142.71,1233.61 L1156.01,1231.5 L1167.37,1234.03 L1183.6,1231.46 L1205.68,1236.11 L1237.72,1232.99 L1243.62,1239.31 L1271.47,1239.58 L1271.87,1239.47 L1313.33,1239.15 L1314.28,1238.74 L1329.17,1238.63 L1326.76,1158.76 L1340.7,1146.19 L1346.46,1138.49 L1364.61,1121.5 L1370.56,1114.09 L1388.53,1096.94 L1390.19,1094.95 L1408.26,1075.91 L1412.44,1072.27 L1422.71,1061.51 L1432.41,1051.66 L1438.25,1045.08 L1452.19,1031.6 L1462.25,1020.39 L1476.14,1006.87 L1486.25,995.706 L1496.67,985.489 L1504.57,977.095 L1516.27,965.332 L1517.26,966.299 L1519.09,967.896 L1542.62,990.73 L1544.46,992.317 L1567.97,1015.16 L1569.82,1016.74 L1593.32,1039.6 L1595.19,1041.16 L1612.13,1057.66 L1618.68,1064.46 L1629.99,1074.2 L1640.79,1085.57 L1655.37,1098.61 L1662.9,1107.27 L1680.93,1123.02 L1688.26,1132 L1706.69,1147.43 L1713.64,1157.18 L1727.84,1167.83 L1729.28,1170.64 L1786.39,1209.9 L1786.99,1213.46 L1786.23,1222.26 L1812.72,1226.77 L1839.1,1222.68 L1851.29,1225.81 L1865.41,1223.51 L1874.64,1225.88 L1890.05,1224.05 L1897.96,1226.44 L1905.68,1225.52 L1921.24,1225.37 L1922.61,1225.94 L1943.1,1225.75 L1945.89,1224.95 L1963.53,1227.29 L1970.53,1225.3 L1983.05,1226.96 L1988.17,1227.68 L1995.66,1225.62 L2006.45,1227.14 L2020.29,1226.3 L2024.75,1227.9 L2044.93,1226.67 L2049.38,1228.27 L2063.87,1227.38 L2066.77,1227.86 L2062.59,1442.49 L2044.88,1459.73 L2038.3,1466.96 L2026.28,1478.71 L2023.27,1475.58 L2020,1471.77 L2002.29,1453.4 L1998.9,1450.1 L1984.37,1433.97 L1974.67,1424.61 L1960.19,1408.43 L1950.41,1399.13 L1940.03,1387.4 L1935.02,1382.39 L1919.95,1366.4 L1918.97,1365.56 L1895.79,1340.91 L1894.77,1340.1 L1872.85,1316.71 L1870.04,1314.62 L1849.99,1291.93 L1845.61,1289.37 L1836.84,1278.77 L1778.41,1255.52 L1778.39,1229.18 L1755.88,1226.66 L1719.86,1281.47 L1714.74,1284.37 L1703.76,1298.98 L1692.14,1307.55 L1679.17,1322.98 L1668.18,1331.95 L1654.91,1347 L1652.1,1349.41 L1648.6,1227.92 L1644.83,1227.43 L1632.04,1229.73 L1623.35,1227.68 L1607.41,1230.55 L1598.71,1228.49 L1582.77,1231.36 L1574.08,1229.3 L1558.96,1232.02 L1564.66,1436.91 L1541.5,1460.57 L1541.46,1460.61 L1521.46,1481.04 L1517.48,1484.8 L1507.55,1495.31 L1504.19,1492 L1501.71,1489.58 L1490.17,1478.09 L1486.57,1474.89 L1464.81,1453.18 L1461.18,1450 L1444.92,1433.73 L1439.44,1428 L1427.65,1417.39 L1414.08,1403.03 L1402.18,1392.51 L1388.71,1378.02 L1384.14,1374.08 L1364.99,1355.62 L1364.67,1355.21 L1340.6,1331.37 L1339.66,1330.74 L1315.25,1306.44 L1314.21,1305.92 L1302.43,1294.01 L1242.63,1275.98 L1241.81,1265.25 L1180.56,1290.47 L1173.13,1299.57 L1165.87,1303.74 L1147.57,1323.82 L1140.73,1328.72 L1123.4,1347 L1115.57,1353.32 L1099.77,1370.16 L1090.41,1378.07 L1074.48,1394.75 L1065.25,1402.75 L1053.4,1415.01 L1041.31,1426.27 L1040.14,1424.98 L1027.24,1412.8 L1022.85,1407.91 L1026.65,1230.57 L1010.84,1229.87 L1009.08,1230.46 L986.202,1229.44 L984.446,1230.03 L961.566,1229.02 L959.81,1229.61 L936.93,1228.59 L935.174,1229.18 L911.969,1228.15 L909.44,1228.99 L862.017,1226.96 L856.714,1228.02 L852.778,1213.24 L795.177,1179.07 L789.575,1170.29 L775.818,1160.07 L765.986,1147.47 L751.153,1135.19 L741.02,1123.25 L726.554,1110.7 L716.219,1099.03 L701.955,1086.31 L691.492,1074.81 L677.355,1061.98 L670.258,1054.32 L662.058,1046.32 L661.732,1235.34 L646.441,1234.45 L642.84,1235.74 L621.799,1234.52 L618.198,1235.82 L607.627,1235.2 L593.558,1235.27 L593.396,1235.2 L580.095,1235.26 L568.755,1234.87 L566.622,1235.69 L554.932,1235.29 L541.981,1235.5 L541.159,1235.17 L517.34,1235.57 L516.517,1235.24 L501.183,1235.49 L501.483,941.825 L497.927,941.822 L486.3,941.978 L481.86,941.828 L461.659,942.099 L457.219,941.949 L455.535,941.972 L444.932,952.243 L444.481,1235.46 L454.86,1236.55 L461.192,1234.56 L479.502,1236.48 L485.834,1234.5 L498.413,1235.82 L498.006,1523.39 L512.476,1523.52 L516.775,1523.35 L537.117,1523.52 L541.417,1523.36 L551.611,1523.44 L541.811,3004.68 L-180.168,2694.51 L208.995,1756.21 L217.136,1749.63 L220.435,1743.8 L241.197,1725.32 L245.641,1719.18 L266.002,1700.36 L270.635,1694.56 L290.806,1675.57 L295.549,1669.93 L315.609,1650.84 L320.425,1645.31 L339.865,1626.68 L345.236,1620.69 L364.09,1602.65 L370.089,1596.06 L388.899,1577.98 L394.932,1571.44 L411.777,1555.19 L-1137.99,1548.36 L-1091.82,1440.92 L368.596,1447.67 L381.431,1460.65 L381.759,1236.28" vector-effect="none" fill-rule="evenodd"/>
   <path d="M1497.08,-1229.85 L1531.02,900.766 L1516.2,916.034 L1510.38,910.024 L1499.62,900.041 L1485.34,885.205 L1474.54,875.262 L1460.3,860.376 L1460.05,860.148 L1444.02,845.094 L1435.26,835.526 L1418.9,820.305 L1410.21,810.641 L1398.86,800.208 L1385.17,785.891 L1378.16,780.112 L1364.28,765.354 L1352.76,755.322 L1343.35,743.781 L1327.2,730.531 L1318.31,718.11 L1307.55,710.598 L1247.77,700.951 L1247.98,684.973 L1186.81,697.413 L1178.97,704.2 L1176.54,708.881 L1154.76,729.36 L1153.79,730.772 L1129.47,753.839 L1128.45,755.147 L1104.18,778.264 L1103.13,779.522 L1080.24,801.372 L1078.89,802.483 L1056.14,825.035 L1053.59,827.183 L1043.23,837.426 L1040.01,834.195 L847.029,836.936 L846.06,831.714 L848.5,821.477 L846.331,809.789 L684.071,811.521 L697.875,796.611 L706.223,789.263 L722.447,771.486 L730.977,764.267 L747.019,746.275 L755.884,739.269 L763.595,730.228 L779.095,714.722 L780.23,712.522 L792.287,700.808 L834.974,566.258 L843.861,628.35 L841.786,675.85 L846.519,691.313 L845.716,713.269 L846.857,716.181 L846.04,738.306 L847.059,740.911 L846.243,763.036 L847.261,765.641 L846.688,781.212 L985.988,779.236 L1001.02,794.581 L1001.51,794.988 L1025.03,818.973 L1025.5,819.386 L1039.25,833.398 L1098.96,-1400.89 L1497.08,-1229.85" vector-effect="none" fill-rule="evenodd"/>
   <path d="M617.818,1470.21 L619.983,1468.26 L642.5,1445.36 L644.683,1443.43 L658.874,1428.97 L850.548,1428.1 L850.641,1429.34 L850.067,1442.58 L851.042,1445.05 L850.077,1467.32 L851.051,1469.78 L850.324,1486.58 L849.626,1490.07 L597.242,1491.11 L617.818,1470.21" vector-effect="none" fill-rule="evenodd"/>
   <path d="M805.486,1234.62 L806.071,1234.4 L850.789,1234.4 L847.019,1262.74 L851.066,1282.68 L904.747,1287.55 L910.274,1290.92 L920.589,1305.21 L933.335,1315.1 L945.336,1329.83 L957.444,1340.11 L969.746,1354.44 L981.558,1364.94 L987.198,1371.32 L849.76,1371.96 L849.238,1373.92 L851.828,1388.89 L850.53,1393.79 L693.053,1394.35 L706.906,1380.81 L713.761,1374.41 L721.943,1364.84 L737.499,1350.61 L746.627,1339.72 L761.705,1326.74 L771.311,1314.38 L785.92,1302.85 L786.035,1234.78 L805.486,1234.62" vector-effect="none" fill-rule="evenodd"/>
   <path d="M1762.31,-1115.9 L1769.84,109.161 L1783.38,599.225 L1780.58,626.446 L1724.66,701.072 L1721.68,702.553 L1707.82,719.686 L1700.18,725.045 L1683.01,744.777 L1675.95,750.432 L1661.36,766.696 L1654.21,773.195 L1622.23,-1176.08 L1762.31,-1115.9" vector-effect="none" fill-rule="evenodd"/>
   <path d="M851.099,1718.43 L850.468,1698.43 L851.178,1696.69 L850.452,1673.7 L851.162,1671.95 L850.627,1655.02 L1003.62,1654.31 L1020.7,1637.23 L1021.08,1636.92 L1037.06,1620.94 L1040.41,1617.44 L1052.69,1630.31 L1057.12,1634.24 L1071.02,1648.88 L1077.04,1655.44 L1086.04,1663.48 L1101.39,1680.44 L1110.56,1688.36 L1125.74,1705.52 L1126.21,1705.91 L1145.04,1723.47 L1150.08,1730.8 L1168.89,1747.42 L1235.97,1748.62 L1238.45,1767.47 L1232.53,1799.17 L1235.57,1861.49 L1299.33,1758.07 L1307.98,1752.59 L1319.22,1737.73 L1326.68,1731.91 L1345.52,1713.14 L1345.55,1713.12 L1370.23,1688.54 L1370.26,1688.52 L1385.89,1672.95 L1394.96,1664.43 L1401.07,1657.41 L1419.67,1639.75 L1425.84,1632.82 L1442.48,1616.91 L1450.28,1608.47 L1465.33,1594.26 L1474.65,1584.26 L1490.03,1569.64 L1499.38,1559.68 L1507.78,1551.67 L1510.17,1554.29 L1505.52,3418.68 L982.251,3193.89 L999.514,1658.73 L985.92,1671.33 L982.086,1675.8 L961.697,3185.06 L924.33,3169.01 L940.367,1717.24 L936.115,1720.48 L851.992,1721.38 L849.798,1738.41 L852.116,1745.92 L848.97,1770.38 L850.034,1774.6 L854.976,1824.03 L856.949,1836.94 L854.711,2111.31 L883.677,3151.54 L672.585,3060.86 L682.4,1641.46 L691.351,1649.74 L702.374,1662.03 L715.95,1674.35 L726.844,1686.81 L740.624,1698.96 L751.313,1711.69 L759.863,1718.87 L851.099,1718.43" vector-effect="none" fill-rule="evenodd"/>
   <path d="M2373.76,738.137 L2351.21,715.003 L2349.13,713.927 L2338.1,702.281 L2275.64,682.268 L2275.47,680.51 L2275.6,635.405 L2281.37,586.567 L2285.96,6.17253 L2309.04,-881.024 L2493.6,-801.736 L2525.85,883.976 L2517.82,876.692 L2509.78,868.44 L2492.68,853.006 L2484.68,844.701 L2467.52,829.321 L2459.58,820.943 L2443.61,806.763 L2434.47,797.109 L2422.4,786.741 L2415.72,779.528 L2400.13,763.786 L2398.34,762.434 L2375.67,739.425 L2373.76,738.137" vector-effect="none" fill-rule="evenodd"/>
   <path d="M1570.82,3446.73 L1575.23,1620.16 L1584.62,1628.87 L1595.71,1640.93 L1606.44,1650.75 L1769.12,1649.18 L1771.03,1641.86 L1768.8,1627.1 L1771.36,1617.13 L1769.17,1602.36 L1769.72,1600.18 L1976.57,1606.37 L1992.68,1590 L1999.34,1584.05 L2017.18,1565.99 L2021.18,1562.38 L2037.98,3647.41 L1952.24,3610.58 L1937.07,1644.56 L1934.63,1646.77 L1923.82,1658.5 L1919.12,1662.68 L1769.7,1658.15 L1768.73,1672.44 L1769.43,1674.48 L1767.88,1697.16 L1768.58,1699.2 L1767.3,1718.03 L1766.2,1721.85 L1768.14,1736.91 L1765.35,1746.57 L1768.06,1767.58 L1765.64,1777.26 L1711.43,1759.71 L1696.77,1744.48 L1696.72,1744.46 L1683.08,1730.31 L1679.12,3493.25 L1570.82,3446.73" vector-effect="none" fill-rule="evenodd"/>
   <path d="M2171.49,1129.05 L2158.91,1117.87 L2150.59,1107.87 L2134.73,1093.36 L2126.97,1084.39 L2110.56,1068.88 L2103.6,1060.92 L2086.39,1044.49 L2079.37,1036.61 L2067.77,1025.46 L2062.19,1019.66 L2280.22,1015.79 L2280.15,1030.1 L2279.42,1033.12 L2280.68,1051.95 L2279.25,1057.85 L2280.52,1076.69 L2279.29,1081.73 L2280.21,1101.42 L2279.08,1105.6 L2280.06,1126.16 L2278.91,1130.33 L2279.9,1150.89 L2278.74,1155.07 L2280.09,1182.57 L2280.21,1183.01 L2279.28,1228.12 L2278.47,1228.86 L2270,1229.05 L2252.82,1226.72 L2219.58,1231.73 L2207.33,1228.59 L2192.78,1230.94 L2182.4,1228.26 L2169.55,1230.33 L2171.49,1129.05" vector-effect="none" fill-rule="evenodd"/>
   <path d="M1999.64,1009.97 L1993.54,1015.77 L1782.24,1016.89 L1781.75,1014.14 L1784.06,1004.11 L1781.39,989.414 L1783.71,979.383 L1781.04,964.686 L1781.09,964.483 L2025.37,958.553 L2025.45,962.017 L2025.52,973.513 L2025.82,978.275 L2025.85,983.387 L2024.75,984.57 L2010.09,998.624 L1999.64,1009.97" vector-effect="none" fill-rule="evenodd"/>
   <path d="M4761.48,172.494 L4475.43,838.148 L4261.79,834.361 L3416.71,826.511 L2667.4,804.57 L2664.43,807.297 L2647.53,824.963 L2643.81,828.27 L2623.28,849.645 L2619.6,852.982 L2599.05,874.328 L2595.39,877.688 L2575.44,898.363 L2581.3,81.0621 L2571.65,-631.536 L2571.09,-768.449 L4761.48,172.494" vector-effect="none" fill-rule="evenodd"/>
   <path d="M2621.21,3897.94 L2544.25,1554.16 L2555.97,1541.87 L2556.43,1541.39 L2563.07,1548.06 L2567.3,1551.87 L2587.71,1571.33 L2588.52,1572.21 L2613.17,1595.7 L2613.98,1596.58 L2626.06,1608.09 L4007.65,1588.31 L4154.62,1584.71 L4135.75,1628.61 L2683.26,1664.43 L2684.03,1665.35 L2702.73,1683.12 L2707.87,1689.53 L2719.79,1700.66 L2731.71,1713.63 L2737.85,1718.1 L2755.55,1738.05 L2762.16,1741.94 L2770.13,1751.85 L3882.29,2218.43 L3076.53,4093.53 L2621.21,3897.94" vector-effect="none" fill-rule="evenodd"/>
   <path d="M2655.03,1230.67 L2675.38,1230.92 L2674.04,1383.86 L2667.02,1391.19 L2653.52,1402.83 L2645.99,1410.57 L2628.67,1426.51 L2620.19,1435.59 L2603.82,1450.77 L2595.29,1459.79 L2578.97,1475.02 L2573.69,1480.55 L2561.13,1492.68 L2563.5,1230.15 L2548.42,1229.52 L2545.89,1230.4 L2523.78,1229.49 L2521.25,1230.36 L2506.55,1229.75 L2499.14,1228.89 L2491.83,1230.88 L2475.8,1229 L2467.19,1231 L2452.46,1228.66 L2442.55,1230.96 L2427.82,1228.61 L2421.45,1230.1 L2403.18,1229.15 L2400.2,1230.17 L2378.53,1229.05 L2375.56,1230.07 L2353.89,1228.94 L2350.33,1230.17 L2313.52,1228.26 L2342.12,1171.78 L2354.05,1163.04 L2361.14,1152.73 L2378.75,1138.01 L2386.28,1128.56 L2403.45,1113.49 L2411.21,1104.39 L2428.14,1089.12 L2436.04,1080.21 L2452.84,1064.82 L2460.83,1056.03 L2476.18,1041.81 L2482.88,1034.68 L2499.57,1018.84 L2512.28,1005 L2524.26,993.515 L2537.02,979.724 L2548.95,968.201 L2558.09,958.385 L2572.84,973.203 L2573.58,974.036 L2597.43,997.984 L2598.17,998.824 L2619.1,1019.82 L2613.62,1230.11 L2630.32,1230.31 L2630.39,1230.34 L2654.96,1230.64 L2655.03,1230.67" vector-effect="none" fill-rule="evenodd"/>
  </g>
  <g font-family="Ubuntu" fill="#74d472" stroke="#232323" stroke-opacity="1" stroke-linejoin="bevel" font-weight="400" stroke-width="3.07087" fill-opacity="1" stroke-linecap="square" font-size="45.8333" font-style="normal" transform="matrix(0.999751,0,0,0.999751,77.154,64.295)">
   <path d="M554.932,1235.29 L566.622,1235.69 L568.755,1234.87 L580.095,1235.26 L579.559,1508.92 L573.627,1515.1 L566.06,1522.24 L564.899,1523.45 L551.611,1523.44 L541.417,1523.36 L537.117,1523.52 L516.775,1523.35 L512.476,1523.52 L498.006,1523.39 L498.413,1235.82 L501.183,1235.49 L516.517,1235.24 L517.34,1235.57 L541.159,1235.17 L541.981,1235.5 L554.932,1235.29" vector-effect="none" fill-rule="evenodd"/>
   <path d="M1041.31,1426.27 L1053.4,1415.01 L1065.25,1402.75 L1074.48,1394.75 L1090.41,1378.07 L1099.77,1370.16 L1115.57,1353.32 L1123.4,1347 L1140.73,1328.72 L1147.57,1323.82 L1165.87,1303.74 L1173.13,1299.57 L1180.56,1290.47 L1241.81,1265.25 L1242.63,1275.98 L1302.43,1294.01 L1314.21,1305.92 L1315.25,1306.44 L1339.66,1330.74 L1340.6,1331.37 L1364.67,1355.21 L1364.99,1355.62 L1384.14,1374.08 L1388.71,1378.02 L1402.18,1392.51 L1414.08,1403.03 L1427.65,1417.39 L1439.44,1428 L1444.92,1433.73 L1239.7,1432.44 L1238.99,1436.48 L1240.97,1448.62 L1238.74,1461.21 L1240.73,1473.36 L1240.09,1476.96 L1239.14,1488.3 L1501.71,1489.58 L1504.19,1492 L1507.55,1495.31 L1517.48,1484.8 L1521.46,1481.04 L1541.46,1460.61 L1541.5,1460.57 L1564.66,1436.91 L1565.58,1436.09 L1587.11,1413.89 L1588,1412.89 L1606.56,1395.03 L1611.96,1388.8 L1630.59,1371.01 L1635.92,1364.68 L1652.1,1349.41 L1654.91,1347 L1668.18,1331.95 L1679.17,1322.98 L1692.14,1307.55 L1703.76,1298.98 L1714.74,1284.37 L1719.86,1281.47 L1755.88,1226.66 L1778.39,1229.18 L1778.41,1255.52 L1836.84,1278.77 L1845.61,1289.37 L1849.99,1291.93 L1870.04,1314.62 L1872.85,1316.71 L1894.77,1340.1 L1895.79,1340.91 L1918.97,1365.56 L1919.95,1366.4 L1935.02,1382.39 L1940.03,1387.4 L1950.41,1399.13 L1960.19,1408.43 L1974.67,1424.61 L1984.37,1433.97 L1998.9,1450.1 L2002.29,1453.4 L2020,1471.77 L2023.27,1475.58 L2026.28,1478.71 L2038.3,1466.96 L2044.88,1459.73 L2062.59,1442.49 L2063.53,1441.62 L2080.47,1423.78 L2084.7,1419.93 L2105.58,1398.81 L2106.14,1398.33 L2123.29,1380.97 L2126.13,1228.54 L2132.14,1227.47 L2143.5,1230.21 L2156.78,1227.85 L2168.14,1230.58 L2169.55,1230.33 L2182.4,1228.26 L2192.78,1230.94 L2207.33,1228.59 L2219.58,1231.73 L2252.82,1226.72 L2270,1229.05 L2278.47,1228.86 L2278.72,1250.5 L2278.25,1280.31 L2278.68,1281.67 L2278.25,1308.69 L2279.09,1311.14 L2278.73,1333.41 L2279.57,1335.86 L2279.32,1351.47 L2280.68,1360.57 L2278.81,1369.59 L2280.73,1382.48 L2279.7,1394.3 L2282.03,1403.01 L2280.98,1415.37 L2282.97,1427.72 L2281.37,1436.44 L2283.91,1452.44 L2282.34,1461.15 L2284.83,1476.96 L2284.88,1477.15 L2283.56,1492.86 L2283.64,1493.16 L2548.01,1489.6 L2556.1,1497.77 L2561.13,1492.68 L2573.69,1480.55 L3479.51,1500.03 L4189.93,1502.55 L4199.36,1480.59 L3390.42,1452.16 L2645.99,1410.57 L2653.52,1402.83 L2667.02,1391.19 L2674.04,1383.86 L2691.6,1367.79 L2694.24,1364.73 L2716.59,1344.41 L2719.16,1341.23 L2737.12,1325.08 L4235.34,1396.86 L4175.16,1536.91 L2567.3,1551.87 L2563.07,1548.06 L2556.43,1541.39 L2555.97,1541.87 L2544.25,1554.16 L2621.21,3897.94 L2355.67,3783.88 L2296.5,1902.45 L2290.69,1852.69 L2291.11,1796.57 L2290.01,1758.9 L2290,1758.89 L2226.13,1751.48 L2217.07,1745.87 L2205.53,1731.07 L2192.41,1721.08 L2180.2,1706.95 L2167.58,1696.58 L2155.13,1682.82 L2142.76,1672.24 L2130.14,1658.67 L2117.96,1648 L2105.17,1634.48 L2093.14,1623.75 L2080.27,1610.32 L2068.28,1599.5 L2063.97,1595.05 L2048.56,1579.67 L2043.36,1575.09 L2025.9,1557.72 L2021.18,1562.38 L2017.18,1565.99 L1999.34,1584.05 L1992.68,1590 L1976.57,1606.37 L1769.72,1600.18 L1771.5,1583.32 L1770.24,1578.93 L1771.97,1558.59 L1770.82,1554.83 L1771.99,1541.01 L1771.98,1540.92 L1507.77,1546.6 L1507.79,1551.45 L1507.78,1551.67 L1499.38,1559.68 L1490.03,1569.64 L1474.65,1584.26 L1465.33,1594.26 L1450.28,1608.47 L1442.48,1616.91 L1425.84,1632.82 L1419.67,1639.75 L1401.07,1657.41 L1394.96,1664.43 L1385.89,1672.95 L1370.26,1688.52 L1370.23,1688.54 L1345.55,1713.12 L1345.52,1713.14 L1326.68,1731.91 L1319.22,1737.73 L1307.98,1752.59 L1299.33,1758.07 L1235.57,1861.49 L1232.53,1799.17 L1238.45,1767.47 L1235.97,1748.62 L1238.14,1737.29 L1236.18,1724.03 L1238.38,1712.56 L1237.5,1706.57 L1237.36,1689.11 L1237.79,1687.82 L1237.66,1672.15 L1236.89,1664.38 L1238.8,1656.46 L1238.14,1649.8 L1071.02,1648.88 L1057.12,1634.24 L1052.69,1630.31 L1040.41,1617.44 L1040.39,1612.4 L1040.6,1609.42 L1040.54,1597.92 L1040.59,1592.55 L1040.41,1583.34 L1040.84,1575.68 L1040.51,1558.61 L1040.94,1550.95 L1040.78,1542.83 L1040.79,1533.49 L1040.61,1527.15 L1041.12,1516.19 L1040.73,1502.42 L1041.24,1491.46 L1041.07,1485.63 L1041.06,1475.91 L1040.9,1468.86 L1041.36,1460.17 L1041.01,1444.13 L1041.47,1435.44 L1041.31,1428.42 L1041.31,1426.27" vector-effect="none" fill-rule="evenodd"/>
   <path d="M1142.71,1233.61 L1131.37,1231.08 L1118.08,1233.18 L1106.74,1230.65 L1093.44,1232.76 L1083.42,1230.53 L1086.69,1076.75 L1082.49,1071.73 L1066.9,1056.42 L1063.84,1053.53 L1052.75,1041.12 L1043.59,1032.38 L1043.65,1016.38 L1043.52,1014.43 L1043.57,1000.98 L1043.54,998.85 L1043.62,985.722 L1043.45,983.178 L1043.58,960.99 L1043.4,958.446 L1043.48,945.465 L1244.57,945.796 L1245.2,933.204 L1244.27,930.106 L1244.95,916.381 L1244.11,905.374 L1245.7,899.564 L1244.98,890.173 L1043.34,889.696 L1043.33,889.103 L1043.31,874.469 L1043.3,874.319 L1043.26,849.737 L1043.25,849.587 L1043.23,837.426 L1053.59,827.183 L1056.14,825.035 L1078.89,802.483 L1080.24,801.372 L1245,803.72 L1245.79,799.86 L1245.57,781.551 L1246.16,779.808 L1245.87,756.82 L1246.46,755.076 L1246.17,732.089 L1246.77,730.345 L1246.44,704.932 L1247.77,700.951 L1307.55,710.598 L1318.31,718.11 L1327.2,730.531 L1343.35,743.781 L1352.76,755.322 L1364.28,765.354 L1378.16,780.112 L1385.17,785.891 L1398.86,800.208 L1410.21,810.641 L1418.9,820.305 L1435.26,835.526 L1444.02,845.094 L1460.05,860.148 L1460.3,860.376 L1474.54,875.262 L1485.34,885.205 L1499.62,900.041 L1510.38,910.024 L1516.2,916.034 L1531.02,900.766 L1534.96,896.998 L1551.5,879.321 L1559.24,871.994 L1575.74,854.276 L1583.54,846.99 L1599.98,829.218 L1607.85,821.986 L1616.22,812.863 L1623.67,805.227 L1780.87,803.337 L1781.82,816.065 L1780.46,820.056 L1782.01,840.795 L1780.65,844.786 L1781.62,857.875 L1780.65,869.518 L1782.45,874.937 L1780.84,894.248 L1782.64,899.667 L1781.02,918.978 L1782.83,924.397 L1781.37,941.843 L1783.33,949.123 L1781.09,964.483 L1781.04,964.686 L1783.71,979.383 L1781.39,989.414 L1784.06,1004.11 L1781.75,1014.14 L1782.24,1016.89 L1784.22,1030.19 L1781.95,1038.87 L1784.34,1054.92 L1784.17,1055.56 L1782.19,1072.28 L1782.41,1073.02 L1784.28,1091.1 L1782.45,1097.01 L1784.4,1115.83 L1782.56,1121.74 L1784.52,1140.56 L1782.67,1146.47 L1784.64,1165.3 L1781.98,1175.32 L1786.39,1209.9 L1729.28,1170.64 L1727.84,1167.83 L1713.64,1157.18 L1706.69,1147.43 L1688.26,1132 L1680.93,1123.02 L1662.9,1107.27 L1655.37,1098.61 L1640.79,1085.57 L1629.99,1074.2 L1618.68,1064.46 L1612.13,1057.66 L1595.19,1041.16 L1593.32,1039.6 L1569.82,1016.74 L1567.97,1015.16 L1544.46,992.317 L1542.62,990.73 L1519.09,967.896 L1517.26,966.299 L1516.27,965.332 L1504.57,977.095 L1496.67,985.489 L1486.25,995.706 L1476.14,1006.87 L1462.25,1020.39 L1452.19,1031.6 L1438.25,1045.08 L1432.41,1051.66 L1422.71,1061.51 L1412.44,1072.27 L1408.26,1075.91 L1390.19,1094.95 L1388.53,1096.94 L1370.56,1114.09 L1364.61,1121.5 L1346.46,1138.49 L1340.7,1146.19 L1326.76,1158.76 L1323.07,1161.83 L1313.61,1175.27 L1304.91,1181.34 L1271.87,1239.47 L1271.47,1239.58 L1243.62,1239.31 L1237.72,1232.99 L1205.68,1236.11 L1183.6,1231.46 L1167.37,1234.03 L1156.01,1231.5 L1142.71,1233.61" vector-effect="none" fill-rule="evenodd"/>
   <path d="M2285.96,6.17253 L2281.37,586.567 L2275.6,635.405 L2275.47,680.51 L2275.64,682.268 L2338.1,702.281 L2349.13,713.927 L2351.21,715.003 L2373.76,738.137 L2375.67,739.425 L2398.34,762.434 L2400.13,763.786 L2415.72,779.528 L2422.4,786.741 L2434.47,797.109 L2443.61,806.763 L2276.69,813.82 L2275.87,831.75 L2277.37,837.36 L2276.5,856.473 L2278,862.083 L2277.46,874.056 L2278.55,886.809 L2277.49,891.62 L2278.09,898.581 L2279.09,911.132 L2277.92,916.346 L2279.48,935.858 L2278.31,941.073 L2279.61,957.404 L2025.45,962.017 L2025.37,958.553 L2025.22,946.163 L2025.24,945.666 L2024.95,921.434 L2024.97,920.937 L2024.67,896.705 L2024.7,896.208 L2024.6,888.116 L2034.42,878.254 L2043.93,868.21 L2052.38,860.344 L2058.8,853.521 L2073.07,838.782 L2077.11,835.184 L2097.94,813.579 L2102.04,810.019 L2122.81,788.36 L2126.99,784.855 L2141.53,769.581 L2157.37,-946.18 L2309.04,-881.024 L2285.96,6.17253" vector-effect="none" fill-rule="evenodd"/>
   <path d="M1768.14,1736.91 L1766.2,1721.85 L1767.3,1718.03 L1768.58,1699.2 L1767.88,1697.16 L1769.43,1674.48 L1768.73,1672.44 L1769.7,1658.15 L1919.12,1662.68 L1903.82,1677.25 L1917.22,3595.53 L1770.77,3532.62 L1766.19,1893.16 L1767.04,1884.1 L1766.25,1803.46 L1765.64,1777.26 L1768.06,1767.58 L1765.35,1746.57 L1768.14,1736.91" vector-effect="none" fill-rule="evenodd"/>
   <path d="M2313.52,1228.26 L2308.9,1229.38 L2279.28,1228.12 L2280.21,1183.01 L2280.09,1182.57 L2278.74,1155.07 L2279.9,1150.89 L2278.91,1130.33 L2280.06,1126.16 L2279.08,1105.6 L2280.21,1101.42 L2279.29,1081.73 L2280.52,1076.69 L2279.25,1057.85 L2280.68,1051.95 L2279.42,1033.12 L2280.15,1030.1 L2482.88,1034.68 L2476.18,1041.81 L2460.83,1056.03 L2452.84,1064.82 L2436.04,1080.21 L2428.14,1089.12 L2411.21,1104.39 L2403.45,1113.49 L2386.28,1128.56 L2378.75,1138.01 L2361.14,1152.73 L2354.05,1163.04 L2342.12,1171.78 L2313.52,1228.26" vector-effect="none" fill-rule="evenodd"/>
  </g>
  <g font-family="Ubuntu" fill="#bde731" stroke="#232323" stroke-opacity="1" stroke-linejoin="bevel" font-weight="400" stroke-width="3.07087" fill-opacity="1" stroke-linecap="square" font-size="45.8333" font-style="normal" transform="matrix(0.999751,0,0,0.999751,77.154,64.295)">
   <path d="M103.016,1231.46 L159.476,1236.15 L215.804,1293.3 L215.827,1293.31 L235.593,1313.36 L235.795,1313.48 L260.21,1338.21 L260.39,1338.34 L273.759,1351.87 L284.539,1363.06 L287.167,1365.17 L305.954,1384.55 L-1064.51,1377.39 L-1002.46,1233.02 L-94.0246,1238.54 L103.016,1231.46" vector-effect="none" fill-rule="evenodd"/>
   <path d="M851.992,1721.38 L936.115,1720.48 L940.367,1717.24 L924.33,3169.01 L883.677,3151.54 L854.711,2111.31 L856.949,1836.94 L854.976,1824.03 L850.034,1774.6 L848.97,1770.38 L852.116,1745.92 L849.798,1738.41 L851.992,1721.38" vector-effect="none" fill-rule="evenodd"/>
   <path d="M673.751,1414.44 L691.864,1395.39 L693.053,1394.35 L850.53,1393.79 L850.54,1413.62 L850.54,1413.63 L850.548,1428.1 L658.874,1428.97 L667.182,1420.29 L673.751,1414.44" vector-effect="none" fill-rule="evenodd"/>
   <path d="M847.059,740.911 L846.04,738.306 L846.857,716.181 L845.716,713.269 L846.519,691.313 L841.786,675.85 L843.861,628.35 L834.974,566.258 L776.212,-182.778 L760.401,-429.755 L742.985,-719.489 L716.95,-1227.53 L701.549,-1571.63 L1098.96,-1400.89 L1039.25,833.398 L1025.5,819.386 L1025.03,818.973 L1001.51,794.988 L1001.02,794.581 L985.988,779.236 L846.688,781.212 L847.261,765.641 L846.243,763.036 L847.059,740.911" vector-effect="none" fill-rule="evenodd"/>
   <path d="M2068.93,-984.174 L2058.8,853.521 L2052.38,860.344 L2043.93,868.21 L2034.42,878.254 L2024.6,888.116 L2019.21,882.469 L2008.15,872.175 L1994.7,857.99 L1991.79,855.303 L1979.74,843.601 L1989.99,-1018.09 L2068.93,-984.174" vector-effect="none" fill-rule="evenodd"/>
   <path d="M985.92,1671.33 L999.514,1658.73 L982.251,3193.89 L961.697,3185.06 L982.086,1675.8 L985.92,1671.33" vector-effect="none" fill-rule="evenodd"/>
   <path d="M1771.98,1540.92 L1771.99,1541.01 L1770.82,1554.83 L1771.97,1558.59 L1770.24,1578.93 L1531.28,1575.86 L1554.76,1599.84 L1559.84,1604.38 L1575.23,1620.16 L1570.82,3446.73 L1505.52,3418.68 L1510.17,1554.29 L1507.78,1551.67 L1507.79,1551.45 L1507.77,1546.6 L1771.98,1540.92" vector-effect="none" fill-rule="evenodd"/>
   <path d="M1623.35,1227.68 L1632.04,1229.73 L1644.83,1227.43 L1648.6,1227.92 L1652.1,1349.41 L1635.92,1364.68 L1630.59,1371.01 L1611.96,1388.8 L1606.56,1395.03 L1588,1412.89 L1587.11,1413.89 L1565.58,1436.09 L1564.66,1436.91 L1558.96,1232.02 L1574.08,1229.3 L1582.77,1231.36 L1598.71,1228.49 L1607.41,1230.55 L1623.35,1227.68" vector-effect="none" fill-rule="evenodd"/>
   <path d="M1782.67,1146.47 L1784.52,1140.56 L1782.56,1121.74 L1784.4,1115.83 L1782.45,1097.01 L1784.28,1091.1 L1782.41,1073.02 L1936.33,1072.24 L1948.77,1060.47 L1954.46,1054.02 L1973.85,1035.53 L1979.6,1029.15 L1986.83,1022.22 L1983.05,1226.96 L1970.53,1225.3 L1963.53,1227.29 L1945.89,1224.95 L1943.1,1225.75 L1922.61,1225.94 L1921.24,1225.37 L1905.68,1225.52 L1907.87,1100.62 L1892.91,1115.28 L1892.31,1116.08 L1867.71,1140.14 L1867.14,1141.02 L1845.27,1162.28 L1784.64,1165.3 L1782.67,1146.47" vector-effect="none" fill-rule="evenodd"/>
   <path d="M2084.11,1228.28 L2082.85,1227.76 L2066.77,1227.86 L2063.87,1227.38 L2067.77,1025.46 L2079.37,1036.61 L2086.39,1044.49 L2103.6,1060.92 L2110.56,1068.88 L2126.97,1084.39 L2134.73,1093.36 L2150.59,1107.87 L2158.91,1117.87 L2171.49,1129.05 L2169.55,1230.33 L2168.14,1230.58 L2156.78,1227.85 L2143.5,1230.21 L2132.14,1227.47 L2126.13,1228.54 L2108.75,1228.65 L2107.49,1228.13 L2084.11,1228.28" vector-effect="none" fill-rule="evenodd"/>
   <path d="M2557.92,915.331 L2547.26,905.296 L2536.06,893.551 L2535.45,892.981 L2525.85,883.976 L2493.6,-801.736 L2571.09,-768.449 L2571.65,-631.536 L2581.3,81.0621 L2575.44,898.363 L2574.83,899.011 L2560.57,912.544 L2557.92,915.331" vector-effect="none" fill-rule="evenodd"/>
   <path d="M2283.56,1492.86 L2284.88,1477.15 L2284.83,1476.96 L2282.34,1461.15 L2283.91,1452.44 L2281.37,1436.44 L2282.97,1427.72 L2280.98,1415.37 L2282.03,1403.01 L2279.7,1394.3 L2280.73,1382.48 L2278.81,1369.59 L2280.68,1360.57 L2279.32,1351.47 L2279.57,1335.86 L2278.73,1333.41 L2279.09,1311.14 L2278.25,1308.69 L2278.68,1281.67 L2278.25,1280.31 L2278.72,1250.5 L2278.47,1228.86 L2279.28,1228.12 L2308.9,1229.38 L2313.52,1228.26 L2350.33,1230.17 L2353.89,1228.94 L2375.56,1230.07 L2378.53,1229.05 L2400.2,1230.17 L2403.18,1229.15 L2421.45,1230.1 L2419.53,1366.53 L2426.05,1373.38 L2441.13,1387.06 L2446.26,1392.73 L2465.56,1410.37 L2470.75,1415.97 L2490,1433.66 L2495.22,1439.21 L2504.57,1447.85 L2519.15,1461.66 L2519.88,1462.44 L2543.59,1484.91 L2548.01,1489.6 L2283.64,1493.16 L2283.56,1492.86" vector-effect="none" fill-rule="evenodd"/>
   <path d="M4154.62,1584.71 L4007.65,1588.31 L2626.06,1608.09 L2613.98,1596.58 L2613.17,1595.7 L2588.52,1572.21 L2587.71,1571.33 L2567.3,1551.87 L4175.16,1536.91 L4154.62,1584.71" vector-effect="none" fill-rule="evenodd"/>
  </g>
  <g font-family="Ubuntu" fill="#d31e51" stroke="#232323" stroke-opacity="1" stroke-linejoin="bevel" font-weight="400" stroke-width="3.07087" fill-opacity="1" stroke-linecap="square" font-size="45.8333" font-style="normal" transform="matrix(0.999751,0,0,0.999751,77.154,64.295)">
   <path d="M682.4,1641.46 L672.585,3060.86 L605.014,3031.83 L614.188,1572.85 L617.544,1575.9 L637.835,1596.72 L642.06,1600.51 L662.321,1621.36 L666.586,1625.12 L682.4,1641.46" vector-effect="none" fill-rule="evenodd"/>
   <path d="M1043.46,929.776 L1043.39,928.706 L1043.4,905.044 L1043.33,903.974 L1043.34,889.696 L1244.98,890.173 L1245.7,899.564 L1244.11,905.374 L1244.95,916.381 L1244.27,930.106 L1245.2,933.204 L1244.57,945.796 L1043.48,945.465 L1043.45,943.61 L1043.46,929.776" vector-effect="none" fill-rule="evenodd"/>
  </g>
  <g font-family="Ubuntu" fill="#398bd7" stroke="#232323" stroke-opacity="1" stroke-linejoin="bevel" font-weight="400" stroke-width="3.07087" fill-opacity="1" stroke-linecap="square" font-size="45.8333" font-style="normal" transform="matrix(0.999751,0,0,0.999751,77.154,64.295)">
   <path d="M-1404.53,2168.49 L-1137.99,1548.36 L411.777,1555.19 L394.932,1571.44 L388.899,1577.98 L370.089,1596.06 L364.09,1602.65 L345.236,1620.69 L339.865,1626.68 L320.425,1645.31 L315.609,1650.84 L295.549,1669.93 L290.806,1675.57 L270.635,1694.56 L266.002,1700.36 L245.641,1719.18 L241.197,1725.32 L220.435,1743.8 L217.136,1749.63 L208.995,1756.21 L-180.168,2694.51 L-1404.53,2168.49" vector-effect="none" fill-rule="evenodd"/>
   <path d="M273.759,1351.87 L260.39,1338.34 L260.21,1338.21 L235.795,1313.48 L235.593,1313.36 L215.827,1293.31 L215.804,1293.3 L159.476,1236.15 L182.957,1235.86 L206.593,1237.3 L213.244,1235.14 L235.937,1236.84 L240.484,1235.28 L260.579,1236.79 L265.125,1235.23 L273.974,1235.89 L287.355,1236.41 L289.766,1235.5 L311.997,1236.35 L314.408,1235.44 L330.053,1236.04 L330.296,1066.1 L340.74,1056.13 L345.944,1051.23 L353.741,1042.64 L370.621,1026.65 L378.468,1018.12 L387.176,1009.82 L386.709,1235.65 L381.759,1236.28 L381.431,1460.65 L368.596,1447.67 L-1091.82,1440.92 L-1064.51,1377.39 L305.954,1384.55 L287.167,1365.17 L284.539,1363.06 L273.759,1351.87" vector-effect="none" fill-rule="evenodd"/>
   <path d="M-438.755,-78.503 L221.859,704.083 L222.209,705.774 L232.66,719.217 L241.908,725.42 L258.168,744.16 L266.624,750.764 L283.205,769.1 L291.339,775.908 L308.095,794.039 L316.054,800.97 L331.545,817.51 L332.857,818.976 L346.502,831.738 L-825.939,822.325 L-438.755,-78.503" vector-effect="none" fill-rule="evenodd"/>
   <path d="M706.223,789.263 L697.875,796.611 L684.071,811.521 L846.331,809.789 L848.5,821.477 L846.06,831.714 L847.029,836.936 L1040.01,834.195 L1043.23,837.426 L1043.25,849.587 L1043.26,849.737 L1043.3,874.319 L1043.31,874.469 L1043.33,889.103 L847.972,891.979 L847.922,899.997 L593.313,903.626 L606.167,890.778 L612.527,884.508 L619.811,876.419 L637.13,859.424 L644.373,851.287 L658.872,837.144 L651.121,-1593.3 L701.549,-1571.63 L716.95,-1227.53 L742.985,-719.489 L760.401,-429.755 L763.595,730.228 L755.884,739.269 L747.019,746.275 L730.977,764.267 L722.447,771.486 L706.223,789.263" vector-effect="none" fill-rule="evenodd"/>
   <path d="M642.06,1600.51 L637.835,1596.72 L617.544,1575.9 L614.188,1572.85 L605.014,3031.83 L541.811,3004.68 L551.611,1523.44 L564.899,1523.45 L566.06,1522.24 L573.627,1515.1 L579.559,1508.92 L580.095,1235.26 L593.396,1235.2 L593.558,1235.27 L607.627,1235.2 L618.198,1235.82 L621.799,1234.52 L642.84,1235.74 L646.441,1234.45 L661.732,1235.34 L662.058,1046.32 L670.258,1054.32 L677.355,1061.98 L691.492,1074.81 L701.955,1086.31 L716.219,1099.03 L726.554,1110.7 L741.02,1123.25 L751.153,1135.19 L765.986,1147.47 L775.818,1160.07 L789.575,1170.29 L795.177,1179.07 L852.778,1213.24 L856.714,1228.02 L854.606,1230.99 L850.789,1234.4 L806.071,1234.4 L805.486,1234.62 L786.035,1234.78 L785.92,1302.85 L771.311,1314.38 L761.705,1326.74 L746.627,1339.72 L737.499,1350.61 L721.943,1364.84 L713.761,1374.41 L706.906,1380.81 L693.053,1394.35 L691.864,1395.39 L673.751,1414.44 L667.182,1420.29 L658.874,1428.97 L644.683,1443.43 L642.5,1445.36 L619.983,1468.26 L617.818,1470.21 L597.242,1491.11 L849.626,1490.07 L850.324,1486.58 L851.051,1469.78 L850.077,1467.32 L851.042,1445.05 L850.067,1442.58 L850.641,1429.34 L850.548,1428.1 L850.54,1413.63 L850.54,1413.62 L850.53,1393.79 L851.828,1388.89 L849.238,1373.92 L849.76,1371.96 L987.198,1371.32 L1003.42,1388.18 L1005.66,1390.1 L1022.85,1407.91 L1027.24,1412.8 L1040.14,1424.98 L1041.31,1426.27 L1041.31,1428.42 L1041.47,1435.44 L1041.01,1444.13 L1041.36,1460.17 L1040.9,1468.86 L1041.06,1475.91 L1041.07,1485.63 L1041.24,1491.46 L1040.73,1502.42 L1041.12,1516.19 L1040.61,1527.15 L1040.79,1533.49 L1040.78,1542.83 L1040.94,1550.95 L1040.51,1558.61 L1040.84,1575.68 L1040.41,1583.34 L1040.59,1592.55 L1040.54,1597.92 L849.567,1598.88 L849.414,1599.51 L852.097,1613.35 L849.435,1624.24 L852.118,1638.08 L849.456,1648.97 L850.627,1655.02 L851.162,1671.95 L850.452,1673.7 L851.178,1696.69 L850.468,1698.43 L851.099,1718.43 L759.863,1718.87 L751.313,1711.69 L740.624,1698.96 L726.844,1686.81 L715.95,1674.35 L702.374,1662.03 L691.351,1649.74 L682.4,1641.46 L666.586,1625.12 L662.321,1621.36 L642.06,1600.51" vector-effect="none" fill-rule="evenodd"/>
   <path d="M497.927,941.822 L501.483,941.825 L501.183,1235.49 L498.413,1235.82 L485.834,1234.5 L479.502,1236.48 L461.192,1234.56 L454.86,1236.55 L444.481,1235.46 L444.932,952.243 L455.535,941.972 L457.219,941.949 L461.659,942.099 L481.86,941.828 L486.3,941.978 L497.927,941.822" vector-effect="none" fill-rule="evenodd"/>
   <path d="M1101.39,1680.44 L1086.04,1663.48 L1077.04,1655.44 L1071.02,1648.88 L1238.14,1649.8 L1238.8,1656.46 L1236.89,1664.38 L1237.66,1672.15 L1237.79,1687.82 L1237.36,1689.11 L1237.5,1706.57 L1238.38,1712.56 L1236.18,1724.03 L1238.14,1737.29 L1235.97,1748.62 L1168.89,1747.42 L1150.08,1730.8 L1145.04,1723.47 L1126.21,1705.91 L1125.74,1705.52 L1110.56,1688.36 L1101.39,1680.44" vector-effect="none" fill-rule="evenodd"/>
   <path d="M1313.33,1239.15 L1271.87,1239.47 L1304.91,1181.34 L1313.61,1175.27 L1323.07,1161.83 L1326.76,1158.76 L1329.17,1238.63 L1314.28,1238.74 L1313.33,1239.15" vector-effect="none" fill-rule="evenodd"/>
   <path d="M1245,803.72 L1080.24,801.372 L1103.13,779.522 L1104.18,778.264 L1128.45,755.147 L1129.47,753.839 L1153.79,730.772 L1154.76,729.36 L1176.54,708.881 L1178.97,704.2 L1186.81,697.413 L1247.98,684.973 L1247.77,700.951 L1246.44,704.932 L1246.77,730.345 L1246.17,732.089 L1246.46,755.076 L1245.87,756.82 L1246.16,779.808 L1245.57,781.551 L1245.79,799.86 L1245,803.72" vector-effect="none" fill-rule="evenodd"/>
   <path d="M1989.99,-1018.09 L1979.74,843.601 L1991.79,855.303 L1781.62,857.875 L1780.65,844.786 L1782.01,840.795 L1780.46,820.056 L1781.82,816.065 L1780.87,803.337 L1781.73,791.334 L1780.11,786.657 L1781.53,766.604 L1780.96,764.969 L1780.23,743.373 L1780.79,741.88 L1780,718.644 L1780.57,717.149 L1779.57,687.739 L1779.24,686.792 L1780.58,626.446 L1783.38,599.225 L1769.84,109.161 L1762.31,-1115.9 L1989.99,-1018.09" vector-effect="none" fill-rule="evenodd"/>
   <path d="M1766.25,1803.46 L1767.04,1884.1 L1766.19,1893.16 L1770.77,3532.62 L1679.12,3493.25 L1683.08,1730.31 L1696.72,1744.46 L1696.77,1744.48 L1711.43,1759.71 L1765.64,1777.26 L1766.25,1803.46" vector-effect="none" fill-rule="evenodd"/>
   <path d="M1584.62,1628.87 L1575.23,1620.16 L1559.84,1604.38 L1554.76,1599.84 L1531.28,1575.86 L1770.24,1578.93 L1771.5,1583.32 L1769.72,1600.18 L1769.17,1602.36 L1771.36,1617.13 L1768.8,1627.1 L1771.03,1641.86 L1769.12,1649.18 L1606.44,1650.75 L1595.71,1640.93 L1584.62,1628.87" vector-effect="none" fill-rule="evenodd"/>
   <path d="M1240.73,1473.36 L1238.74,1461.21 L1240.97,1448.62 L1238.99,1436.48 L1239.7,1432.44 L1444.92,1433.73 L1461.18,1450 L1464.81,1453.18 L1486.57,1474.89 L1490.17,1478.09 L1501.71,1489.58 L1239.14,1488.3 L1240.09,1476.96 L1240.73,1473.36" vector-effect="none" fill-rule="evenodd"/>
   <path d="M2106.14,1398.33 L2105.58,1398.81 L2084.7,1419.93 L2080.47,1423.78 L2063.53,1441.62 L2062.59,1442.49 L2066.77,1227.86 L2082.85,1227.76 L2084.11,1228.28 L2107.49,1228.13 L2108.75,1228.65 L2126.13,1228.54 L2123.29,1380.97 L2106.14,1398.33" vector-effect="none" fill-rule="evenodd"/>
   <path d="M1867.71,1140.14 L1892.31,1116.08 L1892.91,1115.28 L1907.87,1100.62 L1905.68,1225.52 L1897.96,1226.44 L1890.05,1224.05 L1874.64,1225.88 L1865.41,1223.51 L1851.29,1225.81 L1839.1,1222.68 L1812.72,1226.77 L1786.23,1222.26 L1786.99,1213.46 L1786.39,1209.9 L1781.98,1175.32 L1784.64,1165.3 L1845.27,1162.28 L1867.14,1141.02 L1867.71,1140.14" vector-effect="none" fill-rule="evenodd"/>
   <path d="M2067.77,1025.46 L2063.87,1227.38 L2049.38,1228.27 L2044.93,1226.67 L2024.75,1227.9 L2020.29,1226.3 L2006.45,1227.14 L1995.66,1225.62 L1988.17,1227.68 L1983.05,1226.96 L1986.83,1022.22 L1993.54,1015.77 L1999.64,1009.97 L2010.09,998.624 L2024.75,984.57 L2025.85,983.387 L2025.82,978.275 L2025.52,973.513 L2025.45,962.017 L2279.61,957.404 L2278.31,941.073 L2279.48,935.858 L2277.92,916.346 L2279.09,911.132 L2278.09,898.581 L2277.49,891.62 L2278.55,886.809 L2277.46,874.056 L2278,862.083 L2276.5,856.473 L2277.37,837.36 L2275.87,831.75 L2276.69,813.82 L2443.61,806.763 L2459.58,820.943 L2467.52,829.321 L2484.68,844.701 L2492.68,853.006 L2509.78,868.44 L2517.82,876.692 L2525.85,883.976 L2535.45,892.981 L2536.06,893.551 L2547.26,905.296 L2557.92,915.331 L2558.07,923.709 L2557.87,929.8 L2558.22,948.441 L2558.01,954.532 L2558.09,958.385 L2548.95,968.201 L2537.02,979.724 L2524.26,993.515 L2512.28,1005 L2499.57,1018.84 L2482.88,1034.68 L2280.15,1030.1 L2280.22,1015.79 L2062.19,1019.66 L2067.77,1025.46" vector-effect="none" fill-rule="evenodd"/>
   <path d="M1934.63,1646.77 L1937.07,1644.56 L1952.24,3610.58 L1917.22,3595.53 L1903.82,1677.25 L1919.12,1662.68 L1923.82,1658.5 L1934.63,1646.77" vector-effect="none" fill-rule="evenodd"/>
   <path d="M2158.08,3699 L2142.76,1672.24 L2155.13,1682.82 L2167.58,1696.58 L2180.2,1706.95 L2192.41,1721.08 L2205.53,1731.07 L2217.07,1745.87 L2226.13,1751.48 L2290,1758.89 L2290.01,1758.9 L2291.11,1796.57 L2290.69,1852.69 L2296.5,1902.45 L2355.67,3783.88 L2158.08,3699" vector-effect="none" fill-rule="evenodd"/>
   <path d="M2545.89,1230.4 L2548.42,1229.52 L2563.5,1230.15 L2561.13,1492.68 L2556.1,1497.77 L2548.01,1489.6 L2543.59,1484.91 L2519.88,1462.44 L2519.15,1461.66 L2504.57,1447.85 L2506.55,1229.75 L2521.25,1230.36 L2523.78,1229.49 L2545.89,1230.4" vector-effect="none" fill-rule="evenodd"/>
   <path d="M4189.93,1502.55 L3479.51,1500.03 L2573.69,1480.55 L2578.97,1475.02 L2595.29,1459.79 L2603.82,1450.77 L2620.19,1435.59 L2628.67,1426.51 L2645.99,1410.57 L3390.42,1452.16 L4199.36,1480.59 L4189.93,1502.55" vector-effect="none" fill-rule="evenodd"/>
   <path d="M3456.18,1201.46 L4333.93,1167.45 L4235.34,1396.86 L2737.12,1325.08 L2744.09,1316.81 L2759.55,1305.19 L2768.51,1292.89 L2775.42,1288.69 L2810.15,1230.93 L2858.37,1227.28 L3022.9,1226.32 L3456.18,1201.46" vector-effect="none" fill-rule="evenodd"/>
   <path d="M2731.71,1713.63 L2719.79,1700.66 L2707.87,1689.53 L2702.73,1683.12 L2684.03,1665.35 L2683.26,1664.43 L4135.75,1628.61 L3882.29,2218.43 L2770.13,1751.85 L2762.16,1741.94 L2755.55,1738.05 L2737.85,1718.1 L2731.71,1713.63" vector-effect="none" fill-rule="evenodd"/>
  </g>
  <g font-family="Ubuntu" fill="#77efcf" stroke="#232323" stroke-opacity="1" stroke-linejoin="bevel" font-weight="400" stroke-width="3.07087" fill-opacity="1" stroke-linecap="square" font-size="45.8333" font-style="normal" transform="matrix(0.999751,0,0,0.999751,77.154,64.295)">
   <path d="M849.414,1599.51 L849.567,1598.88 L1040.54,1597.92 L1040.6,1609.42 L1040.39,1612.4 L1040.41,1617.44 L1037.06,1620.94 L1021.08,1636.92 L1020.7,1637.23 L1003.62,1654.31 L850.627,1655.02 L849.456,1648.97 L852.118,1638.08 L849.435,1624.24 L852.097,1613.35 L849.414,1599.51" vector-effect="none" fill-rule="evenodd"/>
   <path d="M862.017,1226.96 L909.44,1228.99 L911.969,1228.15 L935.174,1229.18 L936.93,1228.59 L959.81,1229.61 L961.566,1229.02 L984.446,1230.03 L986.202,1229.44 L1009.08,1230.46 L1010.84,1229.87 L1026.65,1230.57 L1022.85,1407.91 L1005.66,1390.1 L1003.42,1388.18 L987.198,1371.32 L981.558,1364.94 L969.746,1354.44 L957.444,1340.11 L945.336,1329.83 L933.335,1315.1 L920.589,1305.21 L910.274,1290.92 L904.747,1287.55 L851.066,1282.68 L847.019,1262.74 L850.789,1234.4 L854.606,1230.99 L856.714,1228.02 L862.017,1226.96" vector-effect="none" fill-rule="evenodd"/>
   <path d="M1994.7,857.99 L2008.15,872.175 L2019.21,882.469 L2024.6,888.116 L2024.7,896.208 L2024.67,896.705 L2024.97,920.937 L2024.95,921.434 L2025.24,945.666 L2025.22,946.163 L2025.37,958.553 L1781.09,964.483 L1783.33,949.123 L1781.37,941.843 L1782.83,924.397 L1781.02,918.978 L1782.64,899.667 L1780.84,894.248 L1782.45,874.937 L1780.65,869.518 L1781.62,857.875 L1991.79,855.303 L1994.7,857.99" vector-effect="none" fill-rule="evenodd"/>
   <path d="M1675.95,750.432 L1683.01,744.777 L1700.18,725.045 L1707.82,719.686 L1721.68,702.553 L1724.66,701.072 L1780.58,626.446 L1779.24,686.792 L1779.57,687.739 L1780.57,717.149 L1780,718.644 L1780.79,741.88 L1780.23,743.373 L1780.96,764.969 L1661.36,766.696 L1675.95,750.432" vector-effect="none" fill-rule="evenodd"/>
   <path d="M763.595,730.228 L760.401,-429.755 L776.212,-182.778 L834.974,566.258 L792.287,700.808 L780.23,712.522 L779.095,714.722 L763.595,730.228" vector-effect="none" fill-rule="evenodd"/>
   <path d="M2441.13,1387.06 L2426.05,1373.38 L2419.53,1366.53 L2421.45,1230.1 L2427.82,1228.61 L2442.55,1230.96 L2452.46,1228.66 L2467.19,1231 L2475.8,1229 L2491.83,1230.88 L2499.14,1228.89 L2506.55,1229.75 L2504.57,1447.85 L2495.22,1439.21 L2490,1433.66 L2470.75,1415.97 L2465.56,1410.37 L2446.26,1392.73 L2441.13,1387.06" vector-effect="none" fill-rule="evenodd"/>
   <path d="M2737.12,1325.08 L2719.16,1341.23 L2716.59,1344.41 L2694.24,1364.73 L2691.6,1367.79 L2674.04,1383.86 L2675.38,1230.92 L2655.03,1230.67 L2654.96,1230.64 L2630.39,1230.34 L2630.32,1230.31 L2613.62,1230.11 L2619.1,1019.82 L2598.17,998.824 L2597.43,997.984 L2573.58,974.036 L2572.84,973.203 L2558.09,958.385 L2558.01,954.532 L2558.22,948.441 L2557.87,929.8 L2558.07,923.709 L2557.92,915.331 L2560.57,912.544 L2574.83,899.011 L2575.44,898.363 L2595.39,877.688 L2599.05,874.328 L2619.6,852.982 L2623.28,849.645 L2643.81,828.27 L2647.53,824.963 L2664.43,807.297 L2667.4,804.57 L3416.71,826.511 L4261.79,834.361 L4475.43,838.148 L4333.93,1167.45 L3456.18,1201.46 L3022.9,1226.32 L2858.37,1227.28 L2810.15,1230.93 L2775.42,1288.69 L2768.51,1292.89 L2759.55,1305.19 L2744.09,1316.81 L2737.12,1325.08" vector-effect="none" fill-rule="evenodd"/>
  </g>
  <g font-family="Ubuntu" fill="none" stroke="#000000" stroke-opacity="1" stroke-linejoin="bevel" font-weight="400" stroke-width="1" stroke-linecap="square" font-size="45.8333" font-style="normal" transform="matrix(0.999751,0,0,0.999751,77.154,64.295)"/>
  <g font-family="Ubuntu" fill="none" stroke="#000000" stroke-opacity="1" stroke-linejoin="bevel" font-weight="400" stroke-width="1" stroke-linecap="square" font-size="45.8333" font-style="normal" transform="matrix(11.8081,0,0,11.8081,77.154,64.295)"/>
  <g font-family="Ubuntu" fill="none" stroke="#000000" stroke-opacity="1" stroke-linejoin="bevel" font-weight="400" stroke-width="1" stroke-linecap="square" font-size="45.8333" font-style="normal" transform="matrix(11.8081,0,0,11.8081,77.154,64.295)"/>
  <g font-family="Ubuntu" fill="none" stroke="#000000" stroke-opacity="1" stroke-linejoin="bevel" font-weight="400" stroke-width="1" stroke-linecap="square" font-size="45.8333" font-style="normal" transform="matrix(11.8081,0,0,11.8081,77.154,64.295)"/>
  <g font-family="Ubuntu" fill="none" stroke="#000000" stroke-opacity="1" stroke-linejoin="bevel" font-weight="400" stroke-width="1" stroke-linecap="square" font-size="45.8333" font-style="normal" transform="matrix(1,0,0,1,0,0)"/>
  <g font-family="Ubuntu" fill="none" stroke="#000000" stroke-opacity="1" stroke-linejoin="bevel" font-weight="400" stroke-width="1" stroke-linecap="square" font-size="45.8333" font-style="normal" transform="matrix(11.8081,0,0,11.8081,77.154,64.295)"/>
  <g font-family="Ubuntu" fill="none" stroke="#000000" stroke-opacity="1" stroke-linejoin="bevel" font-weight="400" stroke-width="1" stroke-linecap="square" font-size="45.8333" font-style="normal" transform="matrix(11.8081,0,0,11.8081,77.154,64.295)"/>
  <g font-family="Ubuntu" fill="none" stroke="#000000" stroke-opacity="1" stroke-linejoin="bevel" font-weight="400" stroke-width="1" stroke-linecap="square" font-size="45.8333" font-style="normal" transform="matrix(11.8081,0,0,11.8081,77.154,64.295)"/>
  <g font-family="Ubuntu" fill="none" stroke="#000000" stroke-opacity="1" stroke-linejoin="bevel" font-weight="400" stroke-width="1" stroke-linecap="square" font-size="45.8333" font-style="normal" transform="matrix(11.8081,0,0,11.8081,77.154,64.295)"/>
  <g font-family="Ubuntu" fill="none" stroke="#000000" stroke-opacity="1" stroke-linejoin="bevel" font-weight="400" stroke-width="1" stroke-linecap="square" font-size="45.8333" font-style="normal" transform="matrix(1,0,0,1,0,0)"/>
 </g>
 <metadata>
  <rdf:RDF xmlns:rdfs="http://www.w3.org/2000/01/rdf-schema#" xmlns:dc="http://purl.org/dc/elements/1.1/" xmlns:rdf="http://www.w3.org/1999/02/22-rdf-syntax-ns#">
   <rdf:Description dc:title="" dc:date="2024-02-02T14:00:43" dc:format="image/svg+xml" dc:identifier="" dc:description="">
    <dc:creator>
     <rdf:Bag>
      <rdf:li>kaue</rdf:li>
     </rdf:Bag>
    </dc:creator>
    <dc:publisher>
     <rdf:Bag>
      <rdf:li>QGIS 3.28.15-Firenze</rdf:li>
     </rdf:Bag>
    </dc:publisher>
    <dc:subject>
     <rdf:Bag/>
    </dc:subject>
   </rdf:Description>
   <cc:Work rdf:about="">
    <dc:format>image/svg+xml</dc:format>
    <dc:title></dc:title>
    <dc:date>2024-02-02T14:00:43</dc:date>
    <dc:identifier></dc:identifier>
    <dc:description></dc:description>
    <dc:creator>
     <cc:Agent>
      <dc:title>kaue</dc:title>
     </cc:Agent>
    </dc:creator>
    <dc:publisher>
     <cc:Agent>
      <dc:title>QGIS 3.28.15-Firenze</dc:title>
     </cc:Agent>
    </dc:publisher>
   </cc:Work>
  </rdf:RDF>
 </metadata>
</svg>
